G04 EAGLE Gerber RS-274X export*
G75*
%MOMM*%
%FSLAX34Y34*%
%LPD*%
%INTop Silkscreen*%
%IPPOS*%
%AMOC8*
5,1,8,0,0,1.08239X$1,22.5*%
G01*
%ADD10C,0.203200*%
%ADD11C,0.177800*%
%ADD12R,0.476300X4.365600*%
%ADD13R,2.063800X0.793700*%
%ADD14R,2.063800X0.793600*%
%ADD15C,0.200000*%
%ADD16C,0.152400*%
%ADD17R,0.990600X0.457200*%
%ADD18R,0.457200X0.990600*%
%ADD19R,0.762000X0.863600*%
%ADD20C,0.050800*%
%ADD21C,0.127000*%
%ADD22C,0.076200*%
%ADD23R,0.150000X0.300000*%
%ADD24R,0.300000X0.300000*%


D10*
X342005Y111400D02*
X413745Y111400D01*
X413745Y155300D02*
X342005Y155300D01*
X413745Y117200D02*
X413745Y111400D01*
X342005Y111400D02*
X342005Y117200D01*
X413745Y149500D02*
X413745Y155300D01*
X342005Y155300D02*
X342005Y149500D01*
D11*
X381175Y147637D02*
X387525Y147637D01*
D10*
X384350Y150812D02*
X384350Y144462D01*
D12*
X392907Y132953D03*
D13*
X404019Y151607D03*
D14*
X404019Y115093D03*
D10*
X413745Y63775D02*
X342005Y63775D01*
X342005Y107675D02*
X413745Y107675D01*
X413745Y69575D02*
X413745Y63775D01*
X342005Y63775D02*
X342005Y69575D01*
X413745Y101875D02*
X413745Y107675D01*
X342005Y107675D02*
X342005Y101875D01*
D11*
X381175Y100012D02*
X387525Y100012D01*
D10*
X384350Y103187D02*
X384350Y96837D01*
D12*
X392907Y85328D03*
D13*
X404019Y103982D03*
D14*
X404019Y67468D03*
D15*
X314450Y79250D02*
X314450Y149350D01*
X314450Y79250D02*
X244350Y79250D01*
X244350Y145800D01*
X247900Y149350D02*
X314450Y149350D01*
X247900Y149350D02*
X244350Y145800D01*
D16*
X248376Y141732D02*
X248378Y141851D01*
X248384Y141971D01*
X248394Y142090D01*
X248408Y142208D01*
X248426Y142326D01*
X248447Y142444D01*
X248473Y142560D01*
X248502Y142676D01*
X248536Y142791D01*
X248573Y142904D01*
X248614Y143016D01*
X248658Y143127D01*
X248706Y143237D01*
X248758Y143344D01*
X248813Y143450D01*
X248872Y143554D01*
X248935Y143656D01*
X249000Y143755D01*
X249069Y143853D01*
X249141Y143948D01*
X249216Y144041D01*
X249295Y144131D01*
X249376Y144219D01*
X249460Y144303D01*
X249547Y144385D01*
X249636Y144464D01*
X249728Y144540D01*
X249823Y144613D01*
X249920Y144683D01*
X250019Y144749D01*
X250121Y144812D01*
X250224Y144872D01*
X250329Y144928D01*
X250436Y144981D01*
X250545Y145030D01*
X250656Y145076D01*
X250768Y145117D01*
X250881Y145155D01*
X250995Y145190D01*
X251111Y145220D01*
X251227Y145247D01*
X251344Y145269D01*
X251462Y145288D01*
X251581Y145303D01*
X251700Y145314D01*
X251819Y145321D01*
X251938Y145324D01*
X252058Y145323D01*
X252177Y145318D01*
X252296Y145309D01*
X252415Y145296D01*
X252533Y145279D01*
X252650Y145259D01*
X252767Y145234D01*
X252883Y145205D01*
X252998Y145173D01*
X253112Y145137D01*
X253225Y145097D01*
X253336Y145053D01*
X253445Y145006D01*
X253553Y144955D01*
X253660Y144901D01*
X253764Y144843D01*
X253866Y144781D01*
X253967Y144717D01*
X254065Y144648D01*
X254161Y144577D01*
X254254Y144503D01*
X254345Y144425D01*
X254433Y144345D01*
X254518Y144261D01*
X254601Y144175D01*
X254681Y144086D01*
X254758Y143995D01*
X254831Y143901D01*
X254902Y143804D01*
X254969Y143706D01*
X255033Y143605D01*
X255094Y143502D01*
X255151Y143397D01*
X255204Y143291D01*
X255254Y143182D01*
X255301Y143072D01*
X255343Y142961D01*
X255382Y142848D01*
X255418Y142734D01*
X255449Y142618D01*
X255476Y142502D01*
X255500Y142385D01*
X255520Y142267D01*
X255536Y142149D01*
X255548Y142030D01*
X255556Y141911D01*
X255560Y141792D01*
X255560Y141672D01*
X255556Y141553D01*
X255548Y141434D01*
X255536Y141315D01*
X255520Y141197D01*
X255500Y141079D01*
X255476Y140962D01*
X255449Y140846D01*
X255418Y140730D01*
X255382Y140616D01*
X255343Y140503D01*
X255301Y140392D01*
X255254Y140282D01*
X255204Y140173D01*
X255151Y140067D01*
X255094Y139962D01*
X255033Y139859D01*
X254969Y139758D01*
X254902Y139660D01*
X254831Y139563D01*
X254758Y139469D01*
X254681Y139378D01*
X254601Y139289D01*
X254518Y139203D01*
X254433Y139119D01*
X254345Y139039D01*
X254254Y138961D01*
X254161Y138887D01*
X254065Y138816D01*
X253967Y138747D01*
X253866Y138683D01*
X253764Y138621D01*
X253660Y138563D01*
X253553Y138509D01*
X253445Y138458D01*
X253336Y138411D01*
X253225Y138367D01*
X253112Y138327D01*
X252998Y138291D01*
X252883Y138259D01*
X252767Y138230D01*
X252650Y138205D01*
X252533Y138185D01*
X252415Y138168D01*
X252296Y138155D01*
X252177Y138146D01*
X252058Y138141D01*
X251938Y138140D01*
X251819Y138143D01*
X251700Y138150D01*
X251581Y138161D01*
X251462Y138176D01*
X251344Y138195D01*
X251227Y138217D01*
X251111Y138244D01*
X250995Y138274D01*
X250881Y138309D01*
X250768Y138347D01*
X250656Y138388D01*
X250545Y138434D01*
X250436Y138483D01*
X250329Y138536D01*
X250224Y138592D01*
X250121Y138652D01*
X250019Y138715D01*
X249920Y138781D01*
X249823Y138851D01*
X249728Y138924D01*
X249636Y139000D01*
X249547Y139079D01*
X249460Y139161D01*
X249376Y139245D01*
X249295Y139333D01*
X249216Y139423D01*
X249141Y139516D01*
X249069Y139611D01*
X249000Y139709D01*
X248935Y139808D01*
X248872Y139910D01*
X248813Y140014D01*
X248758Y140120D01*
X248706Y140227D01*
X248658Y140337D01*
X248614Y140448D01*
X248573Y140560D01*
X248536Y140673D01*
X248502Y140788D01*
X248473Y140904D01*
X248447Y141020D01*
X248426Y141138D01*
X248408Y141256D01*
X248394Y141374D01*
X248384Y141493D01*
X248378Y141613D01*
X248376Y141732D01*
D17*
X238887Y142300D03*
X238887Y134300D03*
X238887Y126300D03*
X238887Y118300D03*
X238887Y110300D03*
X238887Y102300D03*
X238887Y94300D03*
X238887Y86300D03*
D18*
X251400Y73787D03*
X259400Y73787D03*
X267400Y73787D03*
X275400Y73787D03*
X283400Y73787D03*
X291400Y73787D03*
X299400Y73787D03*
X307400Y73787D03*
D17*
X319913Y86300D03*
X319913Y94300D03*
X319913Y102300D03*
X319913Y110300D03*
X319913Y118300D03*
X319913Y126300D03*
X319913Y134300D03*
X319913Y142300D03*
D18*
X307400Y154813D03*
X299400Y154813D03*
X291400Y154813D03*
X283400Y154813D03*
X275400Y154813D03*
X267400Y154813D03*
X259400Y154813D03*
X251400Y154813D03*
D10*
X461010Y91055D02*
X520954Y91059D01*
X461010Y91055D02*
X461010Y156595D01*
X520954Y156591D01*
D19*
X456184Y123825D03*
D16*
X79502Y73025D02*
X79380Y73027D01*
X79258Y73033D01*
X79136Y73043D01*
X79015Y73056D01*
X78894Y73074D01*
X78774Y73095D01*
X78654Y73121D01*
X78536Y73150D01*
X78418Y73182D01*
X78301Y73219D01*
X78186Y73259D01*
X78072Y73303D01*
X77960Y73351D01*
X77849Y73402D01*
X77740Y73457D01*
X77632Y73515D01*
X77527Y73577D01*
X77424Y73642D01*
X77322Y73710D01*
X77223Y73782D01*
X77127Y73856D01*
X77032Y73934D01*
X76941Y74015D01*
X76851Y74098D01*
X76765Y74184D01*
X76682Y74274D01*
X76601Y74365D01*
X76523Y74460D01*
X76449Y74556D01*
X76377Y74655D01*
X76309Y74757D01*
X76244Y74860D01*
X76182Y74965D01*
X76124Y75073D01*
X76069Y75182D01*
X76018Y75293D01*
X75970Y75405D01*
X75926Y75519D01*
X75886Y75634D01*
X75849Y75751D01*
X75817Y75869D01*
X75788Y75987D01*
X75762Y76107D01*
X75741Y76227D01*
X75723Y76348D01*
X75710Y76469D01*
X75700Y76591D01*
X75694Y76713D01*
X75692Y76835D01*
X114808Y158115D02*
X114806Y158237D01*
X114800Y158359D01*
X114790Y158481D01*
X114777Y158602D01*
X114759Y158723D01*
X114738Y158843D01*
X114712Y158963D01*
X114683Y159081D01*
X114651Y159199D01*
X114614Y159316D01*
X114574Y159431D01*
X114530Y159545D01*
X114482Y159657D01*
X114431Y159768D01*
X114376Y159877D01*
X114318Y159985D01*
X114256Y160090D01*
X114191Y160193D01*
X114123Y160295D01*
X114051Y160394D01*
X113977Y160490D01*
X113899Y160585D01*
X113818Y160676D01*
X113735Y160766D01*
X113649Y160852D01*
X113559Y160935D01*
X113468Y161016D01*
X113373Y161094D01*
X113277Y161168D01*
X113178Y161240D01*
X113076Y161308D01*
X112973Y161373D01*
X112868Y161435D01*
X112760Y161493D01*
X112651Y161548D01*
X112540Y161599D01*
X112428Y161647D01*
X112314Y161691D01*
X112199Y161731D01*
X112082Y161768D01*
X111964Y161800D01*
X111846Y161829D01*
X111726Y161855D01*
X111606Y161876D01*
X111485Y161894D01*
X111364Y161907D01*
X111242Y161917D01*
X111120Y161923D01*
X110998Y161925D01*
X114808Y76835D02*
X114806Y76713D01*
X114800Y76591D01*
X114790Y76469D01*
X114777Y76348D01*
X114759Y76227D01*
X114738Y76107D01*
X114712Y75987D01*
X114683Y75869D01*
X114651Y75751D01*
X114614Y75634D01*
X114574Y75519D01*
X114530Y75405D01*
X114482Y75293D01*
X114431Y75182D01*
X114376Y75073D01*
X114318Y74965D01*
X114256Y74860D01*
X114191Y74757D01*
X114123Y74655D01*
X114051Y74556D01*
X113977Y74460D01*
X113899Y74365D01*
X113818Y74274D01*
X113735Y74184D01*
X113649Y74098D01*
X113559Y74015D01*
X113468Y73934D01*
X113373Y73856D01*
X113277Y73782D01*
X113178Y73710D01*
X113076Y73642D01*
X112973Y73577D01*
X112868Y73515D01*
X112760Y73457D01*
X112651Y73402D01*
X112540Y73351D01*
X112428Y73303D01*
X112314Y73259D01*
X112199Y73219D01*
X112082Y73182D01*
X111964Y73150D01*
X111846Y73121D01*
X111726Y73095D01*
X111606Y73074D01*
X111485Y73056D01*
X111364Y73043D01*
X111242Y73033D01*
X111120Y73027D01*
X110998Y73025D01*
X75692Y158115D02*
X75694Y158237D01*
X75700Y158359D01*
X75710Y158481D01*
X75723Y158602D01*
X75741Y158723D01*
X75762Y158843D01*
X75788Y158963D01*
X75817Y159081D01*
X75849Y159199D01*
X75886Y159316D01*
X75926Y159431D01*
X75970Y159545D01*
X76018Y159657D01*
X76069Y159768D01*
X76124Y159877D01*
X76182Y159985D01*
X76244Y160090D01*
X76309Y160193D01*
X76377Y160295D01*
X76449Y160394D01*
X76523Y160490D01*
X76601Y160585D01*
X76682Y160676D01*
X76765Y160766D01*
X76851Y160852D01*
X76941Y160935D01*
X77032Y161016D01*
X77127Y161094D01*
X77223Y161168D01*
X77322Y161240D01*
X77424Y161308D01*
X77527Y161373D01*
X77632Y161435D01*
X77740Y161493D01*
X77849Y161548D01*
X77960Y161599D01*
X78072Y161647D01*
X78186Y161691D01*
X78301Y161731D01*
X78418Y161768D01*
X78536Y161800D01*
X78654Y161829D01*
X78774Y161855D01*
X78894Y161876D01*
X79015Y161894D01*
X79136Y161907D01*
X79258Y161917D01*
X79380Y161923D01*
X79502Y161925D01*
X79502Y73025D02*
X110998Y73025D01*
X110998Y161925D02*
X100330Y161925D01*
X90170Y161925D01*
X79502Y161925D01*
X90170Y161925D02*
X90172Y161784D01*
X90178Y161643D01*
X90188Y161502D01*
X90201Y161361D01*
X90219Y161221D01*
X90241Y161082D01*
X90266Y160943D01*
X90295Y160804D01*
X90328Y160667D01*
X90365Y160531D01*
X90406Y160396D01*
X90450Y160261D01*
X90498Y160129D01*
X90550Y159997D01*
X90605Y159867D01*
X90664Y159739D01*
X90727Y159612D01*
X90793Y159488D01*
X90862Y159365D01*
X90935Y159244D01*
X91011Y159125D01*
X91091Y159008D01*
X91174Y158894D01*
X91259Y158781D01*
X91348Y158672D01*
X91440Y158564D01*
X91535Y158460D01*
X91633Y158358D01*
X91734Y158259D01*
X91837Y158162D01*
X91943Y158069D01*
X92051Y157979D01*
X92162Y157891D01*
X92275Y157807D01*
X92391Y157726D01*
X92509Y157648D01*
X92629Y157573D01*
X92751Y157502D01*
X92875Y157434D01*
X93001Y157370D01*
X93128Y157309D01*
X93257Y157252D01*
X93388Y157199D01*
X93520Y157149D01*
X93653Y157102D01*
X93788Y157060D01*
X93924Y157021D01*
X94061Y156986D01*
X94198Y156955D01*
X94337Y156928D01*
X94476Y156904D01*
X94616Y156885D01*
X94756Y156869D01*
X94897Y156857D01*
X95038Y156849D01*
X95179Y156845D01*
X95321Y156845D01*
X95462Y156849D01*
X95603Y156857D01*
X95744Y156869D01*
X95884Y156885D01*
X96024Y156904D01*
X96163Y156928D01*
X96302Y156955D01*
X96439Y156986D01*
X96576Y157021D01*
X96712Y157060D01*
X96847Y157102D01*
X96980Y157149D01*
X97112Y157199D01*
X97243Y157252D01*
X97372Y157309D01*
X97499Y157370D01*
X97625Y157434D01*
X97749Y157502D01*
X97871Y157573D01*
X97991Y157648D01*
X98109Y157726D01*
X98225Y157807D01*
X98338Y157891D01*
X98449Y157979D01*
X98557Y158069D01*
X98663Y158162D01*
X98766Y158259D01*
X98867Y158358D01*
X98965Y158460D01*
X99060Y158564D01*
X99152Y158672D01*
X99241Y158781D01*
X99326Y158894D01*
X99409Y159008D01*
X99489Y159125D01*
X99565Y159244D01*
X99638Y159365D01*
X99707Y159488D01*
X99773Y159612D01*
X99836Y159739D01*
X99895Y159867D01*
X99950Y159997D01*
X100002Y160129D01*
X100050Y160261D01*
X100094Y160396D01*
X100135Y160531D01*
X100172Y160667D01*
X100205Y160804D01*
X100234Y160943D01*
X100259Y161082D01*
X100281Y161221D01*
X100299Y161361D01*
X100312Y161502D01*
X100322Y161643D01*
X100328Y161784D01*
X100330Y161925D01*
D20*
X79248Y161925D02*
X79248Y73025D01*
D16*
X164592Y76835D02*
X164594Y76713D01*
X164600Y76591D01*
X164610Y76469D01*
X164623Y76348D01*
X164641Y76227D01*
X164662Y76107D01*
X164688Y75987D01*
X164717Y75869D01*
X164749Y75751D01*
X164786Y75634D01*
X164826Y75519D01*
X164870Y75405D01*
X164918Y75293D01*
X164969Y75182D01*
X165024Y75073D01*
X165082Y74965D01*
X165144Y74860D01*
X165209Y74757D01*
X165277Y74655D01*
X165349Y74556D01*
X165423Y74460D01*
X165501Y74365D01*
X165582Y74274D01*
X165665Y74184D01*
X165751Y74098D01*
X165841Y74015D01*
X165932Y73934D01*
X166027Y73856D01*
X166123Y73782D01*
X166222Y73710D01*
X166324Y73642D01*
X166427Y73577D01*
X166532Y73515D01*
X166640Y73457D01*
X166749Y73402D01*
X166860Y73351D01*
X166972Y73303D01*
X167086Y73259D01*
X167201Y73219D01*
X167318Y73182D01*
X167436Y73150D01*
X167554Y73121D01*
X167674Y73095D01*
X167794Y73074D01*
X167915Y73056D01*
X168036Y73043D01*
X168158Y73033D01*
X168280Y73027D01*
X168402Y73025D01*
X203708Y158115D02*
X203706Y158237D01*
X203700Y158359D01*
X203690Y158481D01*
X203677Y158602D01*
X203659Y158723D01*
X203638Y158843D01*
X203612Y158963D01*
X203583Y159081D01*
X203551Y159199D01*
X203514Y159316D01*
X203474Y159431D01*
X203430Y159545D01*
X203382Y159657D01*
X203331Y159768D01*
X203276Y159877D01*
X203218Y159985D01*
X203156Y160090D01*
X203091Y160193D01*
X203023Y160295D01*
X202951Y160394D01*
X202877Y160490D01*
X202799Y160585D01*
X202718Y160676D01*
X202635Y160766D01*
X202549Y160852D01*
X202459Y160935D01*
X202368Y161016D01*
X202273Y161094D01*
X202177Y161168D01*
X202078Y161240D01*
X201976Y161308D01*
X201873Y161373D01*
X201768Y161435D01*
X201660Y161493D01*
X201551Y161548D01*
X201440Y161599D01*
X201328Y161647D01*
X201214Y161691D01*
X201099Y161731D01*
X200982Y161768D01*
X200864Y161800D01*
X200746Y161829D01*
X200626Y161855D01*
X200506Y161876D01*
X200385Y161894D01*
X200264Y161907D01*
X200142Y161917D01*
X200020Y161923D01*
X199898Y161925D01*
X203708Y76835D02*
X203706Y76713D01*
X203700Y76591D01*
X203690Y76469D01*
X203677Y76348D01*
X203659Y76227D01*
X203638Y76107D01*
X203612Y75987D01*
X203583Y75869D01*
X203551Y75751D01*
X203514Y75634D01*
X203474Y75519D01*
X203430Y75405D01*
X203382Y75293D01*
X203331Y75182D01*
X203276Y75073D01*
X203218Y74965D01*
X203156Y74860D01*
X203091Y74757D01*
X203023Y74655D01*
X202951Y74556D01*
X202877Y74460D01*
X202799Y74365D01*
X202718Y74274D01*
X202635Y74184D01*
X202549Y74098D01*
X202459Y74015D01*
X202368Y73934D01*
X202273Y73856D01*
X202177Y73782D01*
X202078Y73710D01*
X201976Y73642D01*
X201873Y73577D01*
X201768Y73515D01*
X201660Y73457D01*
X201551Y73402D01*
X201440Y73351D01*
X201328Y73303D01*
X201214Y73259D01*
X201099Y73219D01*
X200982Y73182D01*
X200864Y73150D01*
X200746Y73121D01*
X200626Y73095D01*
X200506Y73074D01*
X200385Y73056D01*
X200264Y73043D01*
X200142Y73033D01*
X200020Y73027D01*
X199898Y73025D01*
X164592Y158115D02*
X164594Y158237D01*
X164600Y158359D01*
X164610Y158481D01*
X164623Y158602D01*
X164641Y158723D01*
X164662Y158843D01*
X164688Y158963D01*
X164717Y159081D01*
X164749Y159199D01*
X164786Y159316D01*
X164826Y159431D01*
X164870Y159545D01*
X164918Y159657D01*
X164969Y159768D01*
X165024Y159877D01*
X165082Y159985D01*
X165144Y160090D01*
X165209Y160193D01*
X165277Y160295D01*
X165349Y160394D01*
X165423Y160490D01*
X165501Y160585D01*
X165582Y160676D01*
X165665Y160766D01*
X165751Y160852D01*
X165841Y160935D01*
X165932Y161016D01*
X166027Y161094D01*
X166123Y161168D01*
X166222Y161240D01*
X166324Y161308D01*
X166427Y161373D01*
X166532Y161435D01*
X166640Y161493D01*
X166749Y161548D01*
X166860Y161599D01*
X166972Y161647D01*
X167086Y161691D01*
X167201Y161731D01*
X167318Y161768D01*
X167436Y161800D01*
X167554Y161829D01*
X167674Y161855D01*
X167794Y161876D01*
X167915Y161894D01*
X168036Y161907D01*
X168158Y161917D01*
X168280Y161923D01*
X168402Y161925D01*
X168402Y73025D02*
X199898Y73025D01*
X199898Y161925D02*
X189230Y161925D01*
X179070Y161925D01*
X168402Y161925D01*
X179070Y161925D02*
X179072Y161784D01*
X179078Y161643D01*
X179088Y161502D01*
X179101Y161361D01*
X179119Y161221D01*
X179141Y161082D01*
X179166Y160943D01*
X179195Y160804D01*
X179228Y160667D01*
X179265Y160531D01*
X179306Y160396D01*
X179350Y160261D01*
X179398Y160129D01*
X179450Y159997D01*
X179505Y159867D01*
X179564Y159739D01*
X179627Y159612D01*
X179693Y159488D01*
X179762Y159365D01*
X179835Y159244D01*
X179911Y159125D01*
X179991Y159008D01*
X180074Y158894D01*
X180159Y158781D01*
X180248Y158672D01*
X180340Y158564D01*
X180435Y158460D01*
X180533Y158358D01*
X180634Y158259D01*
X180737Y158162D01*
X180843Y158069D01*
X180951Y157979D01*
X181062Y157891D01*
X181175Y157807D01*
X181291Y157726D01*
X181409Y157648D01*
X181529Y157573D01*
X181651Y157502D01*
X181775Y157434D01*
X181901Y157370D01*
X182028Y157309D01*
X182157Y157252D01*
X182288Y157199D01*
X182420Y157149D01*
X182553Y157102D01*
X182688Y157060D01*
X182824Y157021D01*
X182961Y156986D01*
X183098Y156955D01*
X183237Y156928D01*
X183376Y156904D01*
X183516Y156885D01*
X183656Y156869D01*
X183797Y156857D01*
X183938Y156849D01*
X184079Y156845D01*
X184221Y156845D01*
X184362Y156849D01*
X184503Y156857D01*
X184644Y156869D01*
X184784Y156885D01*
X184924Y156904D01*
X185063Y156928D01*
X185202Y156955D01*
X185339Y156986D01*
X185476Y157021D01*
X185612Y157060D01*
X185747Y157102D01*
X185880Y157149D01*
X186012Y157199D01*
X186143Y157252D01*
X186272Y157309D01*
X186399Y157370D01*
X186525Y157434D01*
X186649Y157502D01*
X186771Y157573D01*
X186891Y157648D01*
X187009Y157726D01*
X187125Y157807D01*
X187238Y157891D01*
X187349Y157979D01*
X187457Y158069D01*
X187563Y158162D01*
X187666Y158259D01*
X187767Y158358D01*
X187865Y158460D01*
X187960Y158564D01*
X188052Y158672D01*
X188141Y158781D01*
X188226Y158894D01*
X188309Y159008D01*
X188389Y159125D01*
X188465Y159244D01*
X188538Y159365D01*
X188607Y159488D01*
X188673Y159612D01*
X188736Y159739D01*
X188795Y159867D01*
X188850Y159997D01*
X188902Y160129D01*
X188950Y160261D01*
X188994Y160396D01*
X189035Y160531D01*
X189072Y160667D01*
X189105Y160804D01*
X189134Y160943D01*
X189159Y161082D01*
X189181Y161221D01*
X189199Y161361D01*
X189212Y161502D01*
X189222Y161643D01*
X189228Y161784D01*
X189230Y161925D01*
D20*
X168148Y161925D02*
X168148Y73025D01*
D21*
X351155Y57150D02*
X358775Y49530D01*
X358775Y13970D01*
X351155Y6350D01*
X338455Y6350D01*
X333375Y11430D01*
X328295Y6350D01*
X313055Y6350D01*
X307975Y11430D01*
X302895Y6350D01*
X290195Y6350D01*
X282575Y13970D01*
X282575Y49530D01*
X290195Y57150D01*
X302895Y57150D01*
X307975Y52070D01*
X313055Y57150D01*
X328295Y57150D01*
X333375Y52070D01*
X338455Y57150D01*
X351155Y57150D01*
D22*
X356616Y59238D02*
X358704Y56628D01*
X356616Y59238D02*
X366014Y59238D01*
X366014Y56628D02*
X366014Y61849D01*
D21*
X28575Y190500D02*
X9525Y190500D01*
X28575Y190500D02*
X34925Y184150D01*
X34925Y171450D01*
X28575Y165100D01*
X34925Y158750D01*
X34925Y146050D01*
X28575Y139700D01*
X34925Y133350D01*
X34925Y120650D01*
X28575Y114300D01*
X9525Y114300D01*
X9525Y190500D01*
X3175Y196850D02*
X3175Y107950D01*
X3175Y196850D02*
X28575Y196850D01*
X34925Y190500D01*
X34925Y107950D01*
X3175Y107950D01*
D22*
X425831Y51661D02*
X432096Y51661D01*
X428964Y54793D02*
X428964Y48528D01*
D23*
X432150Y74525D03*
X444150Y74525D03*
D24*
X438150Y74525D03*
D22*
X368596Y10386D02*
X362331Y10386D01*
X365464Y7253D02*
X365464Y13518D01*
D23*
X368650Y33250D03*
X380650Y33250D03*
D24*
X374650Y33250D03*
D20*
X209841Y23495D02*
X209558Y23090D01*
X209265Y22691D01*
X208962Y22300D01*
X208650Y21916D01*
X208329Y21540D01*
X207999Y21172D01*
X207660Y20812D01*
X207312Y20461D01*
X206956Y20118D01*
X206592Y19783D01*
X206219Y19458D01*
X205839Y19142D01*
X205451Y18835D01*
X205056Y18538D01*
X204654Y18250D01*
X204244Y17973D01*
X203829Y17705D01*
X203406Y17448D01*
X202978Y17201D01*
X202544Y16964D01*
X202104Y16738D01*
X201659Y16523D01*
X201209Y16318D01*
X200753Y16125D01*
X200294Y15943D01*
X199830Y15772D01*
X199362Y15613D01*
X198890Y15464D01*
X198415Y15328D01*
X197936Y15203D01*
X197455Y15090D01*
X196971Y14988D01*
X196485Y14898D01*
X195996Y14820D01*
X195506Y14754D01*
X195015Y14700D01*
X194522Y14658D01*
X194028Y14628D01*
X193534Y14610D01*
X193040Y14604D01*
D16*
X215900Y13335D02*
X215900Y23495D01*
D20*
X124460Y14605D02*
X123966Y14611D01*
X123472Y14629D01*
X122978Y14659D01*
X122486Y14701D01*
X121994Y14755D01*
X121504Y14821D01*
X121016Y14899D01*
X120529Y14989D01*
X120046Y15090D01*
X119564Y15204D01*
X119086Y15329D01*
X118611Y15465D01*
X118139Y15613D01*
X117671Y15773D01*
X117207Y15944D01*
X116747Y16126D01*
X116292Y16319D01*
X115841Y16523D01*
X115396Y16738D01*
X114956Y16964D01*
X114522Y17201D01*
X114094Y17448D01*
X113672Y17705D01*
X113256Y17973D01*
X112847Y18251D01*
X112444Y18538D01*
X112049Y18835D01*
X111661Y19142D01*
X111281Y19458D01*
X110909Y19784D01*
X110544Y20118D01*
X110188Y20461D01*
X109840Y20812D01*
X109501Y21172D01*
X109171Y21540D01*
X108850Y21916D01*
X108538Y22300D01*
X108235Y22691D01*
X107943Y23090D01*
X107659Y23495D01*
D16*
X101600Y23495D02*
X101600Y13335D01*
D20*
X124460Y47625D02*
X193040Y47625D01*
X193040Y55245D02*
X124460Y55245D01*
X124460Y22225D02*
X193040Y22225D01*
D16*
X213360Y59055D02*
X104140Y59055D01*
X104040Y59053D01*
X103941Y59047D01*
X103841Y59037D01*
X103743Y59024D01*
X103644Y59006D01*
X103547Y58985D01*
X103451Y58960D01*
X103355Y58931D01*
X103261Y58898D01*
X103168Y58862D01*
X103077Y58822D01*
X102987Y58778D01*
X102899Y58731D01*
X102813Y58681D01*
X102729Y58627D01*
X102647Y58570D01*
X102568Y58510D01*
X102490Y58446D01*
X102416Y58380D01*
X102344Y58311D01*
X102275Y58239D01*
X102209Y58165D01*
X102145Y58087D01*
X102085Y58008D01*
X102028Y57926D01*
X101974Y57842D01*
X101924Y57756D01*
X101877Y57668D01*
X101833Y57578D01*
X101793Y57487D01*
X101757Y57394D01*
X101724Y57300D01*
X101695Y57204D01*
X101670Y57108D01*
X101649Y57011D01*
X101631Y56912D01*
X101618Y56814D01*
X101608Y56714D01*
X101602Y56615D01*
X101600Y56515D01*
X101600Y46355D01*
D20*
X118924Y46355D02*
X119197Y46483D01*
X119473Y46605D01*
X119752Y46720D01*
X120033Y46828D01*
X120317Y46930D01*
X120603Y47025D01*
X120891Y47113D01*
X121181Y47195D01*
X121474Y47269D01*
X121767Y47336D01*
X122063Y47397D01*
X122359Y47450D01*
X122657Y47496D01*
X122956Y47536D01*
X123256Y47568D01*
X123557Y47593D01*
X123857Y47611D01*
X124159Y47621D01*
X124460Y47625D01*
X118924Y23495D02*
X119197Y23367D01*
X119473Y23245D01*
X119752Y23130D01*
X120033Y23022D01*
X120317Y22920D01*
X120603Y22825D01*
X120891Y22737D01*
X121181Y22655D01*
X121474Y22581D01*
X121767Y22514D01*
X122063Y22453D01*
X122359Y22400D01*
X122657Y22354D01*
X122956Y22314D01*
X123256Y22282D01*
X123557Y22257D01*
X123857Y22239D01*
X124159Y22229D01*
X124460Y22225D01*
X107660Y46354D02*
X107943Y46759D01*
X108236Y47158D01*
X108538Y47549D01*
X108850Y47933D01*
X109171Y48309D01*
X109501Y48677D01*
X109840Y49037D01*
X110188Y49388D01*
X110544Y49731D01*
X110909Y50066D01*
X111281Y50391D01*
X111661Y50707D01*
X112049Y51014D01*
X112444Y51311D01*
X112847Y51599D01*
X113256Y51876D01*
X113671Y52144D01*
X114094Y52401D01*
X114522Y52648D01*
X114956Y52885D01*
X115396Y53111D01*
X115841Y53326D01*
X116291Y53530D01*
X116747Y53724D01*
X117206Y53906D01*
X117670Y54077D01*
X118138Y54236D01*
X118610Y54384D01*
X119085Y54521D01*
X119564Y54646D01*
X120045Y54759D01*
X120529Y54861D01*
X121015Y54951D01*
X121503Y55029D01*
X121993Y55095D01*
X122485Y55149D01*
X122978Y55191D01*
X123471Y55221D01*
X123965Y55239D01*
X124460Y55245D01*
X193040Y55245D02*
X193534Y55239D01*
X194028Y55221D01*
X194522Y55191D01*
X195014Y55149D01*
X195506Y55095D01*
X195996Y55029D01*
X196484Y54951D01*
X196971Y54861D01*
X197454Y54760D01*
X197936Y54646D01*
X198414Y54521D01*
X198889Y54385D01*
X199361Y54237D01*
X199829Y54077D01*
X200293Y53906D01*
X200753Y53724D01*
X201208Y53531D01*
X201659Y53327D01*
X202104Y53112D01*
X202544Y52886D01*
X202978Y52649D01*
X203406Y52402D01*
X203828Y52145D01*
X204244Y51877D01*
X204653Y51599D01*
X205056Y51312D01*
X205451Y51015D01*
X205839Y50708D01*
X206219Y50392D01*
X206591Y50066D01*
X206956Y49732D01*
X207312Y49389D01*
X207660Y49038D01*
X207999Y48678D01*
X208329Y48310D01*
X208650Y47934D01*
X208962Y47550D01*
X209265Y47159D01*
X209557Y46760D01*
X209841Y46355D01*
X198576Y46355D02*
X198303Y46483D01*
X198027Y46605D01*
X197748Y46720D01*
X197467Y46828D01*
X197183Y46930D01*
X196897Y47025D01*
X196609Y47113D01*
X196319Y47195D01*
X196026Y47269D01*
X195733Y47336D01*
X195437Y47397D01*
X195141Y47450D01*
X194843Y47496D01*
X194544Y47536D01*
X194244Y47568D01*
X193943Y47593D01*
X193643Y47611D01*
X193341Y47621D01*
X193040Y47625D01*
X198576Y23495D02*
X198303Y23367D01*
X198027Y23245D01*
X197748Y23130D01*
X197467Y23022D01*
X197183Y22920D01*
X196897Y22825D01*
X196609Y22737D01*
X196319Y22655D01*
X196026Y22581D01*
X195733Y22514D01*
X195437Y22453D01*
X195141Y22400D01*
X194843Y22354D01*
X194544Y22314D01*
X194244Y22282D01*
X193943Y22257D01*
X193643Y22239D01*
X193341Y22229D01*
X193040Y22225D01*
D16*
X215900Y46355D02*
X215900Y56515D01*
X215898Y56615D01*
X215892Y56714D01*
X215882Y56814D01*
X215869Y56912D01*
X215851Y57011D01*
X215830Y57108D01*
X215805Y57204D01*
X215776Y57300D01*
X215743Y57394D01*
X215707Y57487D01*
X215667Y57578D01*
X215623Y57668D01*
X215576Y57756D01*
X215526Y57842D01*
X215472Y57926D01*
X215415Y58008D01*
X215355Y58087D01*
X215291Y58165D01*
X215225Y58239D01*
X215156Y58311D01*
X215084Y58380D01*
X215010Y58446D01*
X214932Y58510D01*
X214853Y58570D01*
X214771Y58627D01*
X214687Y58681D01*
X214601Y58731D01*
X214513Y58778D01*
X214423Y58822D01*
X214332Y58862D01*
X214239Y58898D01*
X214145Y58931D01*
X214049Y58960D01*
X213953Y58985D01*
X213856Y59006D01*
X213757Y59024D01*
X213659Y59037D01*
X213559Y59047D01*
X213460Y59053D01*
X213360Y59055D01*
D20*
X193040Y14605D02*
X124460Y14605D01*
D16*
X104140Y10795D02*
X213360Y10795D01*
X104140Y10795D02*
X104040Y10797D01*
X103941Y10803D01*
X103841Y10813D01*
X103743Y10826D01*
X103644Y10844D01*
X103547Y10865D01*
X103451Y10890D01*
X103355Y10919D01*
X103261Y10952D01*
X103168Y10988D01*
X103077Y11028D01*
X102987Y11072D01*
X102899Y11119D01*
X102813Y11169D01*
X102729Y11223D01*
X102647Y11280D01*
X102568Y11340D01*
X102490Y11404D01*
X102416Y11470D01*
X102344Y11539D01*
X102275Y11611D01*
X102209Y11685D01*
X102145Y11763D01*
X102085Y11842D01*
X102028Y11924D01*
X101974Y12008D01*
X101924Y12094D01*
X101877Y12182D01*
X101833Y12272D01*
X101793Y12363D01*
X101757Y12456D01*
X101724Y12550D01*
X101695Y12646D01*
X101670Y12742D01*
X101649Y12839D01*
X101631Y12938D01*
X101618Y13036D01*
X101608Y13136D01*
X101602Y13235D01*
X101600Y13335D01*
X213360Y10795D02*
X213460Y10797D01*
X213559Y10803D01*
X213659Y10813D01*
X213757Y10826D01*
X213856Y10844D01*
X213953Y10865D01*
X214049Y10890D01*
X214145Y10919D01*
X214239Y10952D01*
X214332Y10988D01*
X214423Y11028D01*
X214513Y11072D01*
X214601Y11119D01*
X214687Y11169D01*
X214771Y11223D01*
X214853Y11280D01*
X214932Y11340D01*
X215010Y11404D01*
X215084Y11470D01*
X215156Y11539D01*
X215225Y11611D01*
X215291Y11685D01*
X215355Y11763D01*
X215415Y11842D01*
X215472Y11924D01*
X215526Y12008D01*
X215576Y12094D01*
X215623Y12182D01*
X215667Y12272D01*
X215707Y12363D01*
X215743Y12456D01*
X215776Y12550D01*
X215805Y12646D01*
X215830Y12742D01*
X215851Y12839D01*
X215869Y12938D01*
X215882Y13036D01*
X215892Y13136D01*
X215898Y13235D01*
X215900Y13335D01*
X161290Y28575D02*
X161290Y41275D01*
X156210Y41275D01*
X156210Y28575D01*
X161290Y28575D01*
X165100Y28575D02*
X165100Y34925D01*
X165100Y41275D01*
D20*
X165100Y34925D02*
X168910Y34925D01*
D16*
X152400Y34925D02*
X152400Y28575D01*
X152400Y34925D02*
X152400Y41275D01*
D20*
X152400Y34925D02*
X148590Y34925D01*
D10*
X398975Y163475D02*
X399073Y163477D01*
X399171Y163483D01*
X399269Y163492D01*
X399366Y163506D01*
X399463Y163523D01*
X399559Y163544D01*
X399654Y163569D01*
X399748Y163597D01*
X399840Y163630D01*
X399932Y163665D01*
X400022Y163705D01*
X400110Y163747D01*
X400197Y163794D01*
X400281Y163843D01*
X400364Y163896D01*
X400444Y163952D01*
X400523Y164012D01*
X400599Y164074D01*
X400672Y164139D01*
X400743Y164207D01*
X400811Y164278D01*
X400876Y164351D01*
X400938Y164427D01*
X400998Y164506D01*
X401054Y164586D01*
X401107Y164669D01*
X401156Y164753D01*
X401203Y164840D01*
X401245Y164928D01*
X401285Y165018D01*
X401320Y165110D01*
X401353Y165202D01*
X401381Y165296D01*
X401406Y165391D01*
X401427Y165487D01*
X401444Y165584D01*
X401458Y165681D01*
X401467Y165779D01*
X401473Y165877D01*
X401475Y165975D01*
X398975Y163475D02*
X343975Y163475D01*
X343877Y163477D01*
X343779Y163483D01*
X343681Y163492D01*
X343584Y163506D01*
X343487Y163523D01*
X343391Y163544D01*
X343296Y163569D01*
X343202Y163597D01*
X343110Y163630D01*
X343018Y163665D01*
X342928Y163705D01*
X342840Y163747D01*
X342753Y163794D01*
X342669Y163843D01*
X342586Y163896D01*
X342506Y163952D01*
X342427Y164012D01*
X342351Y164074D01*
X342278Y164139D01*
X342207Y164207D01*
X342139Y164278D01*
X342074Y164351D01*
X342012Y164427D01*
X341952Y164506D01*
X341896Y164586D01*
X341843Y164669D01*
X341794Y164753D01*
X341747Y164840D01*
X341705Y164928D01*
X341665Y165018D01*
X341630Y165110D01*
X341597Y165202D01*
X341569Y165296D01*
X341544Y165391D01*
X341523Y165487D01*
X341506Y165584D01*
X341492Y165681D01*
X341483Y165779D01*
X341477Y165877D01*
X341475Y165975D01*
X341475Y195975D02*
X341477Y196073D01*
X341483Y196171D01*
X341492Y196269D01*
X341506Y196366D01*
X341523Y196463D01*
X341544Y196559D01*
X341569Y196654D01*
X341597Y196748D01*
X341630Y196840D01*
X341665Y196932D01*
X341705Y197022D01*
X341747Y197110D01*
X341794Y197197D01*
X341843Y197281D01*
X341896Y197364D01*
X341952Y197444D01*
X342012Y197523D01*
X342074Y197599D01*
X342139Y197672D01*
X342207Y197743D01*
X342278Y197811D01*
X342351Y197876D01*
X342427Y197938D01*
X342506Y197998D01*
X342586Y198054D01*
X342669Y198107D01*
X342753Y198156D01*
X342840Y198203D01*
X342928Y198245D01*
X343018Y198285D01*
X343110Y198320D01*
X343202Y198353D01*
X343296Y198381D01*
X343391Y198406D01*
X343487Y198427D01*
X343584Y198444D01*
X343681Y198458D01*
X343779Y198467D01*
X343877Y198473D01*
X343975Y198475D01*
X398975Y198475D01*
X399073Y198473D01*
X399171Y198467D01*
X399269Y198458D01*
X399366Y198444D01*
X399463Y198427D01*
X399559Y198406D01*
X399654Y198381D01*
X399748Y198353D01*
X399840Y198320D01*
X399932Y198285D01*
X400022Y198245D01*
X400110Y198203D01*
X400197Y198156D01*
X400281Y198107D01*
X400364Y198054D01*
X400444Y197998D01*
X400523Y197938D01*
X400599Y197876D01*
X400672Y197811D01*
X400743Y197743D01*
X400811Y197672D01*
X400876Y197599D01*
X400938Y197523D01*
X400998Y197444D01*
X401054Y197364D01*
X401107Y197281D01*
X401156Y197197D01*
X401203Y197110D01*
X401245Y197022D01*
X401285Y196932D01*
X401320Y196840D01*
X401353Y196748D01*
X401381Y196654D01*
X401406Y196559D01*
X401427Y196463D01*
X401444Y196366D01*
X401458Y196269D01*
X401467Y196171D01*
X401473Y196073D01*
X401475Y195975D01*
X401475Y191975D01*
X401475Y169975D02*
X401475Y165975D01*
X341475Y165975D02*
X341475Y169975D01*
X341475Y191975D02*
X341475Y195975D01*
X356475Y173475D02*
X386475Y173475D01*
X386475Y188475D02*
X356475Y188475D01*
X386475Y188475D02*
X386475Y173475D01*
X356475Y173475D02*
X356475Y188475D01*
D16*
X635Y34925D02*
X645Y35767D01*
X676Y36608D01*
X728Y37448D01*
X800Y38286D01*
X893Y39122D01*
X1006Y39956D01*
X1140Y40787D01*
X1294Y41615D01*
X1468Y42438D01*
X1663Y43257D01*
X1877Y44071D01*
X2112Y44879D01*
X2366Y45681D01*
X2639Y46477D01*
X2933Y47266D01*
X3245Y48047D01*
X3577Y48821D01*
X3927Y49586D01*
X4296Y50342D01*
X4684Y51089D01*
X5090Y51826D01*
X5513Y52554D01*
X5955Y53270D01*
X6414Y53976D01*
X6890Y54669D01*
X7383Y55352D01*
X7893Y56021D01*
X8418Y56678D01*
X8960Y57322D01*
X9518Y57953D01*
X10091Y58569D01*
X10678Y59172D01*
X11281Y59759D01*
X11897Y60332D01*
X12528Y60890D01*
X13172Y61432D01*
X13829Y61957D01*
X14498Y62467D01*
X15181Y62960D01*
X15874Y63436D01*
X16580Y63895D01*
X17296Y64337D01*
X18024Y64760D01*
X18761Y65166D01*
X19508Y65554D01*
X20264Y65923D01*
X21029Y66273D01*
X21803Y66605D01*
X22584Y66917D01*
X23373Y67211D01*
X24169Y67484D01*
X24971Y67738D01*
X25779Y67973D01*
X26593Y68187D01*
X27412Y68382D01*
X28235Y68556D01*
X29063Y68710D01*
X29894Y68844D01*
X30728Y68957D01*
X31564Y69050D01*
X32402Y69122D01*
X33242Y69174D01*
X34083Y69205D01*
X34925Y69215D01*
X35767Y69205D01*
X36608Y69174D01*
X37448Y69122D01*
X38286Y69050D01*
X39122Y68957D01*
X39956Y68844D01*
X40787Y68710D01*
X41615Y68556D01*
X42438Y68382D01*
X43257Y68187D01*
X44071Y67973D01*
X44879Y67738D01*
X45681Y67484D01*
X46477Y67211D01*
X47266Y66917D01*
X48047Y66605D01*
X48821Y66273D01*
X49586Y65923D01*
X50342Y65554D01*
X51089Y65166D01*
X51826Y64760D01*
X52554Y64337D01*
X53270Y63895D01*
X53976Y63436D01*
X54669Y62960D01*
X55352Y62467D01*
X56021Y61957D01*
X56678Y61432D01*
X57322Y60890D01*
X57953Y60332D01*
X58569Y59759D01*
X59172Y59172D01*
X59759Y58569D01*
X60332Y57953D01*
X60890Y57322D01*
X61432Y56678D01*
X61957Y56021D01*
X62467Y55352D01*
X62960Y54669D01*
X63436Y53976D01*
X63895Y53270D01*
X64337Y52554D01*
X64760Y51826D01*
X65166Y51089D01*
X65554Y50342D01*
X65923Y49586D01*
X66273Y48821D01*
X66605Y48047D01*
X66917Y47266D01*
X67211Y46477D01*
X67484Y45681D01*
X67738Y44879D01*
X67973Y44071D01*
X68187Y43257D01*
X68382Y42438D01*
X68556Y41615D01*
X68710Y40787D01*
X68844Y39956D01*
X68957Y39122D01*
X69050Y38286D01*
X69122Y37448D01*
X69174Y36608D01*
X69205Y35767D01*
X69215Y34925D01*
X69205Y34083D01*
X69174Y33242D01*
X69122Y32402D01*
X69050Y31564D01*
X68957Y30728D01*
X68844Y29894D01*
X68710Y29063D01*
X68556Y28235D01*
X68382Y27412D01*
X68187Y26593D01*
X67973Y25779D01*
X67738Y24971D01*
X67484Y24169D01*
X67211Y23373D01*
X66917Y22584D01*
X66605Y21803D01*
X66273Y21029D01*
X65923Y20264D01*
X65554Y19508D01*
X65166Y18761D01*
X64760Y18024D01*
X64337Y17296D01*
X63895Y16580D01*
X63436Y15874D01*
X62960Y15181D01*
X62467Y14498D01*
X61957Y13829D01*
X61432Y13172D01*
X60890Y12528D01*
X60332Y11897D01*
X59759Y11281D01*
X59172Y10678D01*
X58569Y10091D01*
X57953Y9518D01*
X57322Y8960D01*
X56678Y8418D01*
X56021Y7893D01*
X55352Y7383D01*
X54669Y6890D01*
X53976Y6414D01*
X53270Y5955D01*
X52554Y5513D01*
X51826Y5090D01*
X51089Y4684D01*
X50342Y4296D01*
X49586Y3927D01*
X48821Y3577D01*
X48047Y3245D01*
X47266Y2933D01*
X46477Y2639D01*
X45681Y2366D01*
X44879Y2112D01*
X44071Y1877D01*
X43257Y1663D01*
X42438Y1468D01*
X41615Y1294D01*
X40787Y1140D01*
X39956Y1006D01*
X39122Y893D01*
X38286Y800D01*
X37448Y728D01*
X36608Y676D01*
X35767Y645D01*
X34925Y635D01*
X34083Y645D01*
X33242Y676D01*
X32402Y728D01*
X31564Y800D01*
X30728Y893D01*
X29894Y1006D01*
X29063Y1140D01*
X28235Y1294D01*
X27412Y1468D01*
X26593Y1663D01*
X25779Y1877D01*
X24971Y2112D01*
X24169Y2366D01*
X23373Y2639D01*
X22584Y2933D01*
X21803Y3245D01*
X21029Y3577D01*
X20264Y3927D01*
X19508Y4296D01*
X18761Y4684D01*
X18024Y5090D01*
X17296Y5513D01*
X16580Y5955D01*
X15874Y6414D01*
X15181Y6890D01*
X14498Y7383D01*
X13829Y7893D01*
X13172Y8418D01*
X12528Y8960D01*
X11897Y9518D01*
X11281Y10091D01*
X10678Y10678D01*
X10091Y11281D01*
X9518Y11897D01*
X8960Y12528D01*
X8418Y13172D01*
X7893Y13829D01*
X7383Y14498D01*
X6890Y15181D01*
X6414Y15874D01*
X5955Y16580D01*
X5513Y17296D01*
X5090Y18024D01*
X4684Y18761D01*
X4296Y19508D01*
X3927Y20264D01*
X3577Y21029D01*
X3245Y21803D01*
X2933Y22584D01*
X2639Y23373D01*
X2366Y24169D01*
X2112Y24971D01*
X1877Y25779D01*
X1663Y26593D01*
X1468Y27412D01*
X1294Y28235D01*
X1140Y29063D01*
X1006Y29894D01*
X893Y30728D01*
X800Y31564D01*
X728Y32402D01*
X676Y33242D01*
X645Y34083D01*
X635Y34925D01*
D10*
X18925Y34925D02*
X18930Y35318D01*
X18944Y35710D01*
X18968Y36102D01*
X19002Y36493D01*
X19045Y36884D01*
X19098Y37273D01*
X19161Y37660D01*
X19232Y38046D01*
X19314Y38431D01*
X19404Y38813D01*
X19505Y39192D01*
X19614Y39570D01*
X19733Y39944D01*
X19860Y40315D01*
X19997Y40683D01*
X20143Y41048D01*
X20298Y41409D01*
X20461Y41766D01*
X20633Y42119D01*
X20814Y42467D01*
X21004Y42811D01*
X21201Y43151D01*
X21407Y43485D01*
X21621Y43814D01*
X21844Y44138D01*
X22074Y44456D01*
X22311Y44769D01*
X22557Y45075D01*
X22810Y45376D01*
X23070Y45670D01*
X23337Y45958D01*
X23611Y46239D01*
X23892Y46513D01*
X24180Y46780D01*
X24474Y47040D01*
X24775Y47293D01*
X25081Y47539D01*
X25394Y47776D01*
X25712Y48006D01*
X26036Y48229D01*
X26365Y48443D01*
X26699Y48649D01*
X27039Y48846D01*
X27383Y49036D01*
X27731Y49217D01*
X28084Y49389D01*
X28441Y49552D01*
X28802Y49707D01*
X29167Y49853D01*
X29535Y49990D01*
X29906Y50117D01*
X30280Y50236D01*
X30658Y50345D01*
X31037Y50446D01*
X31419Y50536D01*
X31804Y50618D01*
X32190Y50689D01*
X32577Y50752D01*
X32966Y50805D01*
X33357Y50848D01*
X33748Y50882D01*
X34140Y50906D01*
X34532Y50920D01*
X34925Y50925D01*
X35318Y50920D01*
X35710Y50906D01*
X36102Y50882D01*
X36493Y50848D01*
X36884Y50805D01*
X37273Y50752D01*
X37660Y50689D01*
X38046Y50618D01*
X38431Y50536D01*
X38813Y50446D01*
X39192Y50345D01*
X39570Y50236D01*
X39944Y50117D01*
X40315Y49990D01*
X40683Y49853D01*
X41048Y49707D01*
X41409Y49552D01*
X41766Y49389D01*
X42119Y49217D01*
X42467Y49036D01*
X42811Y48846D01*
X43151Y48649D01*
X43485Y48443D01*
X43814Y48229D01*
X44138Y48006D01*
X44456Y47776D01*
X44769Y47539D01*
X45075Y47293D01*
X45376Y47040D01*
X45670Y46780D01*
X45958Y46513D01*
X46239Y46239D01*
X46513Y45958D01*
X46780Y45670D01*
X47040Y45376D01*
X47293Y45075D01*
X47539Y44769D01*
X47776Y44456D01*
X48006Y44138D01*
X48229Y43814D01*
X48443Y43485D01*
X48649Y43151D01*
X48846Y42811D01*
X49036Y42467D01*
X49217Y42119D01*
X49389Y41766D01*
X49552Y41409D01*
X49707Y41048D01*
X49853Y40683D01*
X49990Y40315D01*
X50117Y39944D01*
X50236Y39570D01*
X50345Y39192D01*
X50446Y38813D01*
X50536Y38431D01*
X50618Y38046D01*
X50689Y37660D01*
X50752Y37273D01*
X50805Y36884D01*
X50848Y36493D01*
X50882Y36102D01*
X50906Y35710D01*
X50920Y35318D01*
X50925Y34925D01*
X50920Y34532D01*
X50906Y34140D01*
X50882Y33748D01*
X50848Y33357D01*
X50805Y32966D01*
X50752Y32577D01*
X50689Y32190D01*
X50618Y31804D01*
X50536Y31419D01*
X50446Y31037D01*
X50345Y30658D01*
X50236Y30280D01*
X50117Y29906D01*
X49990Y29535D01*
X49853Y29167D01*
X49707Y28802D01*
X49552Y28441D01*
X49389Y28084D01*
X49217Y27731D01*
X49036Y27383D01*
X48846Y27039D01*
X48649Y26699D01*
X48443Y26365D01*
X48229Y26036D01*
X48006Y25712D01*
X47776Y25394D01*
X47539Y25081D01*
X47293Y24775D01*
X47040Y24474D01*
X46780Y24180D01*
X46513Y23892D01*
X46239Y23611D01*
X45958Y23337D01*
X45670Y23070D01*
X45376Y22810D01*
X45075Y22557D01*
X44769Y22311D01*
X44456Y22074D01*
X44138Y21844D01*
X43814Y21621D01*
X43485Y21407D01*
X43151Y21201D01*
X42811Y21004D01*
X42467Y20814D01*
X42119Y20633D01*
X41766Y20461D01*
X41409Y20298D01*
X41048Y20143D01*
X40683Y19997D01*
X40315Y19860D01*
X39944Y19733D01*
X39570Y19614D01*
X39192Y19505D01*
X38813Y19404D01*
X38431Y19314D01*
X38046Y19232D01*
X37660Y19161D01*
X37273Y19098D01*
X36884Y19045D01*
X36493Y19002D01*
X36102Y18968D01*
X35710Y18944D01*
X35318Y18930D01*
X34925Y18925D01*
X34532Y18930D01*
X34140Y18944D01*
X33748Y18968D01*
X33357Y19002D01*
X32966Y19045D01*
X32577Y19098D01*
X32190Y19161D01*
X31804Y19232D01*
X31419Y19314D01*
X31037Y19404D01*
X30658Y19505D01*
X30280Y19614D01*
X29906Y19733D01*
X29535Y19860D01*
X29167Y19997D01*
X28802Y20143D01*
X28441Y20298D01*
X28084Y20461D01*
X27731Y20633D01*
X27383Y20814D01*
X27039Y21004D01*
X26699Y21201D01*
X26365Y21407D01*
X26036Y21621D01*
X25712Y21844D01*
X25394Y22074D01*
X25081Y22311D01*
X24775Y22557D01*
X24474Y22810D01*
X24180Y23070D01*
X23892Y23337D01*
X23611Y23611D01*
X23337Y23892D01*
X23070Y24180D01*
X22810Y24474D01*
X22557Y24775D01*
X22311Y25081D01*
X22074Y25394D01*
X21844Y25712D01*
X21621Y26036D01*
X21407Y26365D01*
X21201Y26699D01*
X21004Y27039D01*
X20814Y27383D01*
X20633Y27731D01*
X20461Y28084D01*
X20298Y28441D01*
X20143Y28802D01*
X19997Y29167D01*
X19860Y29535D01*
X19733Y29906D01*
X19614Y30280D01*
X19505Y30658D01*
X19404Y31037D01*
X19314Y31419D01*
X19232Y31804D01*
X19161Y32190D01*
X19098Y32577D01*
X19045Y32966D01*
X19002Y33357D01*
X18968Y33748D01*
X18944Y34140D01*
X18930Y34532D01*
X18925Y34925D01*
D16*
X480060Y34925D02*
X480070Y35767D01*
X480101Y36608D01*
X480153Y37448D01*
X480225Y38286D01*
X480318Y39122D01*
X480431Y39956D01*
X480565Y40787D01*
X480719Y41615D01*
X480893Y42438D01*
X481088Y43257D01*
X481302Y44071D01*
X481537Y44879D01*
X481791Y45681D01*
X482064Y46477D01*
X482358Y47266D01*
X482670Y48047D01*
X483002Y48821D01*
X483352Y49586D01*
X483721Y50342D01*
X484109Y51089D01*
X484515Y51826D01*
X484938Y52554D01*
X485380Y53270D01*
X485839Y53976D01*
X486315Y54669D01*
X486808Y55352D01*
X487318Y56021D01*
X487843Y56678D01*
X488385Y57322D01*
X488943Y57953D01*
X489516Y58569D01*
X490103Y59172D01*
X490706Y59759D01*
X491322Y60332D01*
X491953Y60890D01*
X492597Y61432D01*
X493254Y61957D01*
X493923Y62467D01*
X494606Y62960D01*
X495299Y63436D01*
X496005Y63895D01*
X496721Y64337D01*
X497449Y64760D01*
X498186Y65166D01*
X498933Y65554D01*
X499689Y65923D01*
X500454Y66273D01*
X501228Y66605D01*
X502009Y66917D01*
X502798Y67211D01*
X503594Y67484D01*
X504396Y67738D01*
X505204Y67973D01*
X506018Y68187D01*
X506837Y68382D01*
X507660Y68556D01*
X508488Y68710D01*
X509319Y68844D01*
X510153Y68957D01*
X510989Y69050D01*
X511827Y69122D01*
X512667Y69174D01*
X513508Y69205D01*
X514350Y69215D01*
X515192Y69205D01*
X516033Y69174D01*
X516873Y69122D01*
X517711Y69050D01*
X518547Y68957D01*
X519381Y68844D01*
X520212Y68710D01*
X521040Y68556D01*
X521863Y68382D01*
X522682Y68187D01*
X523496Y67973D01*
X524304Y67738D01*
X525106Y67484D01*
X525902Y67211D01*
X526691Y66917D01*
X527472Y66605D01*
X528246Y66273D01*
X529011Y65923D01*
X529767Y65554D01*
X530514Y65166D01*
X531251Y64760D01*
X531979Y64337D01*
X532695Y63895D01*
X533401Y63436D01*
X534094Y62960D01*
X534777Y62467D01*
X535446Y61957D01*
X536103Y61432D01*
X536747Y60890D01*
X537378Y60332D01*
X537994Y59759D01*
X538597Y59172D01*
X539184Y58569D01*
X539757Y57953D01*
X540315Y57322D01*
X540857Y56678D01*
X541382Y56021D01*
X541892Y55352D01*
X542385Y54669D01*
X542861Y53976D01*
X543320Y53270D01*
X543762Y52554D01*
X544185Y51826D01*
X544591Y51089D01*
X544979Y50342D01*
X545348Y49586D01*
X545698Y48821D01*
X546030Y48047D01*
X546342Y47266D01*
X546636Y46477D01*
X546909Y45681D01*
X547163Y44879D01*
X547398Y44071D01*
X547612Y43257D01*
X547807Y42438D01*
X547981Y41615D01*
X548135Y40787D01*
X548269Y39956D01*
X548382Y39122D01*
X548475Y38286D01*
X548547Y37448D01*
X548599Y36608D01*
X548630Y35767D01*
X548640Y34925D01*
X548630Y34083D01*
X548599Y33242D01*
X548547Y32402D01*
X548475Y31564D01*
X548382Y30728D01*
X548269Y29894D01*
X548135Y29063D01*
X547981Y28235D01*
X547807Y27412D01*
X547612Y26593D01*
X547398Y25779D01*
X547163Y24971D01*
X546909Y24169D01*
X546636Y23373D01*
X546342Y22584D01*
X546030Y21803D01*
X545698Y21029D01*
X545348Y20264D01*
X544979Y19508D01*
X544591Y18761D01*
X544185Y18024D01*
X543762Y17296D01*
X543320Y16580D01*
X542861Y15874D01*
X542385Y15181D01*
X541892Y14498D01*
X541382Y13829D01*
X540857Y13172D01*
X540315Y12528D01*
X539757Y11897D01*
X539184Y11281D01*
X538597Y10678D01*
X537994Y10091D01*
X537378Y9518D01*
X536747Y8960D01*
X536103Y8418D01*
X535446Y7893D01*
X534777Y7383D01*
X534094Y6890D01*
X533401Y6414D01*
X532695Y5955D01*
X531979Y5513D01*
X531251Y5090D01*
X530514Y4684D01*
X529767Y4296D01*
X529011Y3927D01*
X528246Y3577D01*
X527472Y3245D01*
X526691Y2933D01*
X525902Y2639D01*
X525106Y2366D01*
X524304Y2112D01*
X523496Y1877D01*
X522682Y1663D01*
X521863Y1468D01*
X521040Y1294D01*
X520212Y1140D01*
X519381Y1006D01*
X518547Y893D01*
X517711Y800D01*
X516873Y728D01*
X516033Y676D01*
X515192Y645D01*
X514350Y635D01*
X513508Y645D01*
X512667Y676D01*
X511827Y728D01*
X510989Y800D01*
X510153Y893D01*
X509319Y1006D01*
X508488Y1140D01*
X507660Y1294D01*
X506837Y1468D01*
X506018Y1663D01*
X505204Y1877D01*
X504396Y2112D01*
X503594Y2366D01*
X502798Y2639D01*
X502009Y2933D01*
X501228Y3245D01*
X500454Y3577D01*
X499689Y3927D01*
X498933Y4296D01*
X498186Y4684D01*
X497449Y5090D01*
X496721Y5513D01*
X496005Y5955D01*
X495299Y6414D01*
X494606Y6890D01*
X493923Y7383D01*
X493254Y7893D01*
X492597Y8418D01*
X491953Y8960D01*
X491322Y9518D01*
X490706Y10091D01*
X490103Y10678D01*
X489516Y11281D01*
X488943Y11897D01*
X488385Y12528D01*
X487843Y13172D01*
X487318Y13829D01*
X486808Y14498D01*
X486315Y15181D01*
X485839Y15874D01*
X485380Y16580D01*
X484938Y17296D01*
X484515Y18024D01*
X484109Y18761D01*
X483721Y19508D01*
X483352Y20264D01*
X483002Y21029D01*
X482670Y21803D01*
X482358Y22584D01*
X482064Y23373D01*
X481791Y24169D01*
X481537Y24971D01*
X481302Y25779D01*
X481088Y26593D01*
X480893Y27412D01*
X480719Y28235D01*
X480565Y29063D01*
X480431Y29894D01*
X480318Y30728D01*
X480225Y31564D01*
X480153Y32402D01*
X480101Y33242D01*
X480070Y34083D01*
X480060Y34925D01*
D10*
X498350Y34925D02*
X498355Y35318D01*
X498369Y35710D01*
X498393Y36102D01*
X498427Y36493D01*
X498470Y36884D01*
X498523Y37273D01*
X498586Y37660D01*
X498657Y38046D01*
X498739Y38431D01*
X498829Y38813D01*
X498930Y39192D01*
X499039Y39570D01*
X499158Y39944D01*
X499285Y40315D01*
X499422Y40683D01*
X499568Y41048D01*
X499723Y41409D01*
X499886Y41766D01*
X500058Y42119D01*
X500239Y42467D01*
X500429Y42811D01*
X500626Y43151D01*
X500832Y43485D01*
X501046Y43814D01*
X501269Y44138D01*
X501499Y44456D01*
X501736Y44769D01*
X501982Y45075D01*
X502235Y45376D01*
X502495Y45670D01*
X502762Y45958D01*
X503036Y46239D01*
X503317Y46513D01*
X503605Y46780D01*
X503899Y47040D01*
X504200Y47293D01*
X504506Y47539D01*
X504819Y47776D01*
X505137Y48006D01*
X505461Y48229D01*
X505790Y48443D01*
X506124Y48649D01*
X506464Y48846D01*
X506808Y49036D01*
X507156Y49217D01*
X507509Y49389D01*
X507866Y49552D01*
X508227Y49707D01*
X508592Y49853D01*
X508960Y49990D01*
X509331Y50117D01*
X509705Y50236D01*
X510083Y50345D01*
X510462Y50446D01*
X510844Y50536D01*
X511229Y50618D01*
X511615Y50689D01*
X512002Y50752D01*
X512391Y50805D01*
X512782Y50848D01*
X513173Y50882D01*
X513565Y50906D01*
X513957Y50920D01*
X514350Y50925D01*
X514743Y50920D01*
X515135Y50906D01*
X515527Y50882D01*
X515918Y50848D01*
X516309Y50805D01*
X516698Y50752D01*
X517085Y50689D01*
X517471Y50618D01*
X517856Y50536D01*
X518238Y50446D01*
X518617Y50345D01*
X518995Y50236D01*
X519369Y50117D01*
X519740Y49990D01*
X520108Y49853D01*
X520473Y49707D01*
X520834Y49552D01*
X521191Y49389D01*
X521544Y49217D01*
X521892Y49036D01*
X522236Y48846D01*
X522576Y48649D01*
X522910Y48443D01*
X523239Y48229D01*
X523563Y48006D01*
X523881Y47776D01*
X524194Y47539D01*
X524500Y47293D01*
X524801Y47040D01*
X525095Y46780D01*
X525383Y46513D01*
X525664Y46239D01*
X525938Y45958D01*
X526205Y45670D01*
X526465Y45376D01*
X526718Y45075D01*
X526964Y44769D01*
X527201Y44456D01*
X527431Y44138D01*
X527654Y43814D01*
X527868Y43485D01*
X528074Y43151D01*
X528271Y42811D01*
X528461Y42467D01*
X528642Y42119D01*
X528814Y41766D01*
X528977Y41409D01*
X529132Y41048D01*
X529278Y40683D01*
X529415Y40315D01*
X529542Y39944D01*
X529661Y39570D01*
X529770Y39192D01*
X529871Y38813D01*
X529961Y38431D01*
X530043Y38046D01*
X530114Y37660D01*
X530177Y37273D01*
X530230Y36884D01*
X530273Y36493D01*
X530307Y36102D01*
X530331Y35710D01*
X530345Y35318D01*
X530350Y34925D01*
X530345Y34532D01*
X530331Y34140D01*
X530307Y33748D01*
X530273Y33357D01*
X530230Y32966D01*
X530177Y32577D01*
X530114Y32190D01*
X530043Y31804D01*
X529961Y31419D01*
X529871Y31037D01*
X529770Y30658D01*
X529661Y30280D01*
X529542Y29906D01*
X529415Y29535D01*
X529278Y29167D01*
X529132Y28802D01*
X528977Y28441D01*
X528814Y28084D01*
X528642Y27731D01*
X528461Y27383D01*
X528271Y27039D01*
X528074Y26699D01*
X527868Y26365D01*
X527654Y26036D01*
X527431Y25712D01*
X527201Y25394D01*
X526964Y25081D01*
X526718Y24775D01*
X526465Y24474D01*
X526205Y24180D01*
X525938Y23892D01*
X525664Y23611D01*
X525383Y23337D01*
X525095Y23070D01*
X524801Y22810D01*
X524500Y22557D01*
X524194Y22311D01*
X523881Y22074D01*
X523563Y21844D01*
X523239Y21621D01*
X522910Y21407D01*
X522576Y21201D01*
X522236Y21004D01*
X521892Y20814D01*
X521544Y20633D01*
X521191Y20461D01*
X520834Y20298D01*
X520473Y20143D01*
X520108Y19997D01*
X519740Y19860D01*
X519369Y19733D01*
X518995Y19614D01*
X518617Y19505D01*
X518238Y19404D01*
X517856Y19314D01*
X517471Y19232D01*
X517085Y19161D01*
X516698Y19098D01*
X516309Y19045D01*
X515918Y19002D01*
X515527Y18968D01*
X515135Y18944D01*
X514743Y18930D01*
X514350Y18925D01*
X513957Y18930D01*
X513565Y18944D01*
X513173Y18968D01*
X512782Y19002D01*
X512391Y19045D01*
X512002Y19098D01*
X511615Y19161D01*
X511229Y19232D01*
X510844Y19314D01*
X510462Y19404D01*
X510083Y19505D01*
X509705Y19614D01*
X509331Y19733D01*
X508960Y19860D01*
X508592Y19997D01*
X508227Y20143D01*
X507866Y20298D01*
X507509Y20461D01*
X507156Y20633D01*
X506808Y20814D01*
X506464Y21004D01*
X506124Y21201D01*
X505790Y21407D01*
X505461Y21621D01*
X505137Y21844D01*
X504819Y22074D01*
X504506Y22311D01*
X504200Y22557D01*
X503899Y22810D01*
X503605Y23070D01*
X503317Y23337D01*
X503036Y23611D01*
X502762Y23892D01*
X502495Y24180D01*
X502235Y24474D01*
X501982Y24775D01*
X501736Y25081D01*
X501499Y25394D01*
X501269Y25712D01*
X501046Y26036D01*
X500832Y26365D01*
X500626Y26699D01*
X500429Y27039D01*
X500239Y27383D01*
X500058Y27731D01*
X499886Y28084D01*
X499723Y28441D01*
X499568Y28802D01*
X499422Y29167D01*
X499285Y29535D01*
X499158Y29906D01*
X499039Y30280D01*
X498930Y30658D01*
X498829Y31037D01*
X498739Y31419D01*
X498657Y31804D01*
X498586Y32190D01*
X498523Y32577D01*
X498470Y32966D01*
X498427Y33357D01*
X498393Y33748D01*
X498369Y34140D01*
X498355Y34532D01*
X498350Y34925D01*
D16*
X73025Y57785D02*
X73025Y62865D01*
X98425Y62865D02*
X98425Y57785D01*
X98425Y62865D02*
X97155Y62865D01*
X97155Y57785D02*
X98425Y57785D01*
X74295Y57785D02*
X73025Y57785D01*
X73025Y62865D02*
X74295Y62865D01*
X28575Y140335D02*
X28575Y145415D01*
X53975Y145415D02*
X53975Y140335D01*
X53975Y145415D02*
X52705Y145415D01*
X52705Y140335D02*
X53975Y140335D01*
X29845Y140335D02*
X28575Y140335D01*
X28575Y145415D02*
X29845Y145415D01*
X460375Y75565D02*
X460375Y70485D01*
X485775Y70485D02*
X485775Y75565D01*
X484505Y75565D01*
X484505Y70485D02*
X485775Y70485D01*
X461645Y70485D02*
X460375Y70485D01*
X460375Y75565D02*
X461645Y75565D01*
M02*
