G04 EAGLE Gerber RS-274X export*
G75*
%MOMM*%
%FSLAX34Y34*%
%LPD*%
%INTop Copper*%
%IPPOS*%
%AMOC8*
5,1,8,0,0,1.08239X$1,22.5*%
G01*
%ADD10R,1.600000X1.300000*%
%ADD11R,2.600000X2.400000*%
%ADD12R,1.300000X1.600000*%
%ADD13C,0.550000*%
%ADD14R,1.270000X0.550000*%
%ADD15R,0.550000X1.270000*%
%ADD16R,6.200000X5.400000*%
%ADD17R,1.600000X1.000000*%
%ADD18R,2.032000X0.660400*%
%ADD19C,1.625600*%
%ADD20C,1.500000*%
%ADD21R,1.200000X1.200000*%
%ADD22R,5.334000X1.930400*%
%ADD23R,1.300000X1.500000*%
%ADD24R,1.500000X1.300000*%
%ADD25R,2.300000X1.600000*%
%ADD26R,1.270000X2.540000*%
%ADD27C,5.842000*%
%ADD28P,2.336880X8X22.500000*%
%ADD29C,0.400000*%
%ADD30C,0.604800*%
%ADD31C,0.600000*%

G36*
X494031Y5997D02*
X494031Y5997D01*
X494033Y5997D01*
X494033Y5998D01*
X494034Y6000D01*
X494032Y6002D01*
X494031Y6004D01*
X492734Y6754D01*
X486179Y13309D01*
X481544Y21336D01*
X479145Y30290D01*
X479145Y39560D01*
X481544Y48514D01*
X486179Y56541D01*
X492734Y63096D01*
X500761Y67731D01*
X509715Y70130D01*
X518985Y70130D01*
X527939Y67731D01*
X535966Y63096D01*
X542521Y56541D01*
X543996Y53988D01*
X543998Y53987D01*
X543999Y53985D01*
X544000Y53986D01*
X544002Y53986D01*
X544003Y53988D01*
X544005Y53990D01*
X544005Y194000D01*
X544000Y194005D01*
X544000Y194004D01*
X544000Y194005D01*
X510825Y194005D01*
X510820Y194000D01*
X510821Y194000D01*
X510820Y194000D01*
X510820Y165792D01*
X507308Y162280D01*
X505964Y162280D01*
X505961Y162277D01*
X505960Y162277D01*
X505253Y160571D01*
X498051Y153369D01*
X498050Y153367D01*
X498049Y153366D01*
X498050Y153364D01*
X498050Y153362D01*
X498053Y153362D01*
X498054Y153360D01*
X507595Y153360D01*
X507595Y123830D01*
X474065Y123830D01*
X474065Y148401D01*
X474060Y148406D01*
X474060Y148405D01*
X474060Y148406D01*
X448600Y148406D01*
X448595Y148401D01*
X448596Y148401D01*
X448595Y148401D01*
X448595Y139142D01*
X445083Y135630D01*
X442809Y135630D01*
X442806Y135627D01*
X442804Y135627D01*
X442226Y134230D01*
X436296Y128300D01*
X436296Y128298D01*
X436295Y128298D01*
X436271Y128241D01*
X433734Y125704D01*
X430419Y124331D01*
X428575Y124331D01*
X428570Y124326D01*
X428571Y124326D01*
X428570Y124326D01*
X428570Y118867D01*
X425058Y115355D01*
X394092Y115355D01*
X390580Y118867D01*
X390580Y147833D01*
X391144Y148397D01*
X391144Y148399D01*
X391145Y148400D01*
X391144Y148402D01*
X391144Y148404D01*
X391142Y148404D01*
X391140Y148406D01*
X341486Y148406D01*
X341483Y148403D01*
X341482Y148403D01*
X341270Y147892D01*
X341270Y147891D01*
X341271Y147889D01*
X341272Y147886D01*
X341274Y147886D01*
X341275Y147885D01*
X346070Y147885D01*
X346070Y133350D01*
X346070Y118815D01*
X332571Y118815D01*
X332467Y118858D01*
X332463Y118857D01*
X332461Y118857D01*
X331908Y118304D01*
X331908Y118297D01*
X331908Y118296D01*
X334671Y115533D01*
X334671Y100265D01*
X334676Y100260D01*
X334676Y100261D01*
X334676Y100260D01*
X346070Y100260D01*
X346070Y85725D01*
X346070Y71190D01*
X338466Y71190D01*
X338465Y71189D01*
X338463Y71189D01*
X338463Y71187D01*
X338461Y71185D01*
X338463Y71184D01*
X338463Y71181D01*
X341322Y68322D01*
X341325Y68321D01*
X341326Y68320D01*
X366715Y68320D01*
X369654Y67103D01*
X381428Y55329D01*
X381876Y54248D01*
X381879Y54247D01*
X381880Y54245D01*
X383133Y54245D01*
X383671Y53707D01*
X383678Y53707D01*
X383679Y53707D01*
X383717Y53745D01*
X385341Y53745D01*
X385341Y53746D01*
X385342Y53745D01*
X385343Y53747D01*
X385346Y53750D01*
X385345Y53751D01*
X385345Y53752D01*
X384681Y55356D01*
X384681Y58944D01*
X386054Y62259D01*
X388591Y64796D01*
X391906Y66169D01*
X395494Y66169D01*
X398809Y64796D01*
X401346Y62259D01*
X402719Y58944D01*
X402719Y55356D01*
X402055Y53752D01*
X402055Y53751D01*
X402054Y53751D01*
X402056Y53749D01*
X402057Y53746D01*
X402058Y53746D01*
X402059Y53745D01*
X403683Y53745D01*
X404309Y53119D01*
X404311Y53119D01*
X404312Y53119D01*
X404313Y53119D01*
X404314Y53119D01*
X404316Y53119D01*
X404316Y53120D01*
X404316Y53119D01*
X405442Y54245D01*
X407925Y54245D01*
X407930Y54250D01*
X407929Y54250D01*
X407930Y54250D01*
X407930Y57011D01*
X407928Y57013D01*
X407928Y57015D01*
X402797Y62146D01*
X401580Y65085D01*
X401580Y67725D01*
X401575Y67730D01*
X401575Y67729D01*
X401575Y67730D01*
X394092Y67730D01*
X390580Y71242D01*
X390580Y100208D01*
X394092Y103720D01*
X416261Y103720D01*
X416263Y103722D01*
X416265Y103722D01*
X418096Y105553D01*
X420346Y107803D01*
X420602Y107909D01*
X420603Y107912D01*
X420605Y107913D01*
X420605Y108508D01*
X424117Y112020D01*
X445083Y112020D01*
X448595Y108508D01*
X448595Y93542D01*
X446160Y91107D01*
X446160Y91100D01*
X446299Y90961D01*
X446685Y90029D01*
X446685Y83530D01*
X438150Y83530D01*
X429615Y83530D01*
X429615Y90025D01*
X429610Y90030D01*
X429610Y90029D01*
X429610Y90030D01*
X428575Y90030D01*
X428570Y90025D01*
X428571Y90025D01*
X428570Y90025D01*
X428570Y73436D01*
X428571Y73434D01*
X428571Y73433D01*
X428573Y73432D01*
X428575Y73431D01*
X428576Y73431D01*
X428577Y73432D01*
X428579Y73432D01*
X429667Y74520D01*
X446633Y74520D01*
X450145Y71008D01*
X450145Y54042D01*
X448994Y52891D01*
X448994Y52884D01*
X448995Y52884D01*
X448994Y52884D01*
X451645Y50233D01*
X451645Y32267D01*
X451132Y31754D01*
X451132Y31747D01*
X451132Y31746D01*
X451645Y31233D01*
X451645Y13267D01*
X448133Y9755D01*
X428167Y9755D01*
X424981Y12940D01*
X424979Y12940D01*
X424978Y12942D01*
X424977Y12941D01*
X424976Y12941D01*
X424429Y12715D01*
X415930Y12715D01*
X415930Y21750D01*
X415926Y21755D01*
X415925Y21755D01*
X415925Y21754D01*
X415925Y21755D01*
X415920Y21750D01*
X415920Y12715D01*
X407421Y12715D01*
X406874Y12941D01*
X406873Y12941D01*
X406872Y12942D01*
X406870Y12940D01*
X406869Y12940D01*
X403683Y9755D01*
X383717Y9755D01*
X383679Y9793D01*
X383672Y9793D01*
X383671Y9793D01*
X383133Y9255D01*
X366167Y9255D01*
X362655Y12767D01*
X362655Y23750D01*
X362650Y23755D01*
X362650Y23754D01*
X362650Y23755D01*
X359420Y23755D01*
X359420Y23754D01*
X359419Y23755D01*
X359418Y23753D01*
X359416Y23750D01*
X359416Y23749D01*
X359416Y23748D01*
X360198Y21859D01*
X360198Y16241D01*
X358048Y11050D01*
X354075Y7077D01*
X351487Y6005D01*
X351486Y6002D01*
X351484Y6001D01*
X351484Y6000D01*
X351484Y5999D01*
X351487Y5997D01*
X351489Y5995D01*
X494029Y5995D01*
X494031Y5997D01*
G37*
G36*
X155438Y42922D02*
X155438Y42922D01*
X155440Y42922D01*
X173271Y60753D01*
X176210Y61970D01*
X196711Y61970D01*
X196713Y61972D01*
X196715Y61972D01*
X204812Y70069D01*
X204813Y70071D01*
X204813Y70072D01*
X204814Y70072D01*
X204813Y70074D01*
X204813Y70076D01*
X204810Y70076D01*
X204809Y70078D01*
X202241Y70078D01*
X198729Y73590D01*
X198729Y85160D01*
X199290Y85721D01*
X199290Y85723D01*
X199290Y85728D01*
X199290Y85729D01*
X198729Y86290D01*
X198729Y88348D01*
X198727Y88350D01*
X198726Y88352D01*
X198725Y88352D01*
X198724Y88353D01*
X198724Y88352D01*
X198722Y88351D01*
X198719Y88350D01*
X198146Y86966D01*
X195609Y84429D01*
X192294Y83056D01*
X188706Y83056D01*
X185391Y84429D01*
X182854Y86966D01*
X181481Y90281D01*
X181481Y93869D01*
X182504Y96340D01*
X182504Y96341D01*
X182505Y96341D01*
X182504Y96342D01*
X182505Y96342D01*
X182505Y103190D01*
X183722Y106129D01*
X188179Y110586D01*
X188179Y110587D01*
X188180Y110588D01*
X189204Y113059D01*
X191741Y115596D01*
X195056Y116969D01*
X198644Y116969D01*
X198722Y116937D01*
X198723Y116937D01*
X198725Y116938D01*
X198728Y116939D01*
X198728Y116940D01*
X198729Y116942D01*
X198729Y123260D01*
X199290Y123821D01*
X199290Y123823D01*
X199291Y123823D01*
X199290Y123824D01*
X199290Y123828D01*
X199290Y123829D01*
X198729Y124390D01*
X198729Y135960D01*
X199290Y136521D01*
X199290Y136523D01*
X199291Y136524D01*
X199290Y136524D01*
X199290Y136528D01*
X199290Y136529D01*
X198729Y137090D01*
X198729Y147575D01*
X198724Y147580D01*
X198724Y147579D01*
X198724Y147580D01*
X182560Y147580D01*
X179621Y148797D01*
X178528Y149891D01*
X178521Y149891D01*
X178521Y149890D01*
X178521Y149891D01*
X177134Y148504D01*
X177134Y148498D01*
X177135Y148498D01*
X177134Y148497D01*
X186786Y138846D01*
X186787Y138846D01*
X186788Y138845D01*
X189259Y137821D01*
X191796Y135284D01*
X193169Y131969D01*
X193169Y128381D01*
X191796Y125066D01*
X189259Y122529D01*
X185944Y121156D01*
X182356Y121156D01*
X179041Y122529D01*
X176504Y125066D01*
X175480Y127537D01*
X175479Y127538D01*
X175479Y127539D01*
X169580Y133438D01*
X169578Y133439D01*
X169577Y133440D01*
X169575Y133439D01*
X169573Y133439D01*
X169573Y133436D01*
X169571Y133435D01*
X169571Y124390D01*
X169010Y123829D01*
X169010Y123825D01*
X169009Y123825D01*
X169010Y123824D01*
X169010Y123822D01*
X169010Y123821D01*
X169571Y123260D01*
X169571Y111690D01*
X169010Y111129D01*
X169010Y111125D01*
X169010Y111124D01*
X169010Y111122D01*
X169010Y111121D01*
X169571Y110560D01*
X169571Y98990D01*
X169010Y98429D01*
X169010Y98422D01*
X169010Y98421D01*
X169571Y97860D01*
X169571Y86290D01*
X166113Y82831D01*
X166112Y82829D01*
X166111Y82828D01*
X166111Y79380D01*
X153416Y79380D01*
X153411Y79376D01*
X153411Y79375D01*
X153411Y73538D01*
X142752Y73538D01*
X142146Y73789D01*
X142145Y73788D01*
X142145Y73789D01*
X142144Y73789D01*
X142143Y73788D01*
X142140Y73787D01*
X142140Y73785D01*
X142139Y73784D01*
X142139Y73590D01*
X138627Y70078D01*
X113341Y70078D01*
X109829Y73590D01*
X109829Y85160D01*
X110390Y85721D01*
X110390Y85723D01*
X110390Y85728D01*
X110390Y85729D01*
X110066Y86052D01*
X110060Y86053D01*
X110060Y86052D01*
X110059Y86052D01*
X107096Y83089D01*
X107096Y83088D01*
X107095Y83087D01*
X106071Y80616D01*
X103534Y78079D01*
X100219Y76706D01*
X96631Y76706D01*
X93316Y78079D01*
X90779Y80616D01*
X89406Y83931D01*
X89406Y84075D01*
X89401Y84080D01*
X89401Y84079D01*
X89401Y84080D01*
X78463Y84080D01*
X78462Y84078D01*
X78460Y84078D01*
X77213Y82831D01*
X77212Y82829D01*
X77211Y82828D01*
X77211Y79380D01*
X64516Y79380D01*
X64511Y79376D01*
X64511Y79375D01*
X64511Y73538D01*
X58431Y73538D01*
X58430Y73537D01*
X58428Y73537D01*
X58428Y73535D01*
X58426Y73533D01*
X58428Y73532D01*
X58428Y73529D01*
X63635Y68322D01*
X63638Y68321D01*
X63639Y68320D01*
X69973Y68320D01*
X69975Y68322D01*
X69977Y68322D01*
X75184Y73529D01*
X75185Y73531D01*
X75186Y73532D01*
X75185Y73534D01*
X75185Y73536D01*
X75182Y73536D01*
X75181Y73538D01*
X64521Y73538D01*
X64521Y79370D01*
X77211Y79370D01*
X77211Y75568D01*
X77212Y75567D01*
X77212Y75565D01*
X77214Y75565D01*
X77216Y75563D01*
X77217Y75565D01*
X77220Y75565D01*
X78770Y77115D01*
X92680Y77115D01*
X102515Y67280D01*
X102515Y53370D01*
X99726Y50581D01*
X99725Y50579D01*
X99724Y50578D01*
X99725Y50576D01*
X99725Y50574D01*
X99728Y50574D01*
X99729Y50572D01*
X139643Y50572D01*
X143155Y47060D01*
X143155Y42925D01*
X143160Y42920D01*
X143160Y42921D01*
X143160Y42920D01*
X155436Y42920D01*
X155438Y42922D01*
G37*
G36*
X315263Y5997D02*
X315263Y5997D01*
X315266Y5998D01*
X315265Y5999D01*
X315266Y6000D01*
X315264Y6002D01*
X315263Y6005D01*
X312675Y7077D01*
X308702Y11050D01*
X306552Y16241D01*
X306552Y21859D01*
X306553Y21861D01*
X306551Y21865D01*
X306552Y21867D01*
X305057Y23361D01*
X305054Y23362D01*
X305051Y23363D01*
X305051Y23362D01*
X305050Y23362D01*
X305050Y23359D01*
X305049Y23356D01*
X305157Y23143D01*
X305676Y21547D01*
X305938Y19889D01*
X305938Y19055D01*
X295280Y19055D01*
X295280Y29713D01*
X296114Y29713D01*
X297772Y29451D01*
X299368Y28932D01*
X300776Y28215D01*
X300778Y28215D01*
X300780Y28214D01*
X300780Y28216D01*
X300782Y28216D01*
X300782Y28219D01*
X300783Y28220D01*
X300782Y28220D01*
X300783Y28221D01*
X299980Y30160D01*
X299980Y31105D01*
X299979Y31105D01*
X299980Y31106D01*
X299978Y31107D01*
X299975Y31109D01*
X299974Y31108D01*
X299973Y31109D01*
X298084Y30327D01*
X292466Y30327D01*
X287275Y32477D01*
X283302Y36450D01*
X281152Y41641D01*
X281152Y47259D01*
X283302Y52450D01*
X287275Y56423D01*
X291402Y58132D01*
X291403Y58135D01*
X291405Y58137D01*
X291405Y59024D01*
X291400Y59029D01*
X291400Y59028D01*
X291400Y59029D01*
X253915Y59029D01*
X253914Y59028D01*
X253912Y59028D01*
X253912Y59026D01*
X253910Y59024D01*
X253912Y59023D01*
X253912Y59020D01*
X253953Y58979D01*
X254173Y58448D01*
X254176Y58447D01*
X254177Y58445D01*
X256158Y58445D01*
X259670Y54933D01*
X259670Y54785D01*
X259671Y54785D01*
X259670Y54784D01*
X259672Y54783D01*
X259675Y54780D01*
X259676Y54781D01*
X259677Y54781D01*
X260171Y54985D01*
X267170Y54985D01*
X267170Y44450D01*
X267170Y33915D01*
X260171Y33915D01*
X259677Y34119D01*
X259676Y34119D01*
X259676Y34120D01*
X259674Y34118D01*
X259671Y34117D01*
X259671Y34116D01*
X259670Y34115D01*
X259670Y33967D01*
X259044Y33341D01*
X259044Y33339D01*
X259044Y33338D01*
X259044Y33334D01*
X259045Y33334D01*
X259044Y33334D01*
X259670Y32708D01*
X259670Y32560D01*
X259671Y32560D01*
X259670Y32559D01*
X259672Y32558D01*
X259675Y32555D01*
X259676Y32556D01*
X259677Y32556D01*
X260171Y32760D01*
X267170Y32760D01*
X267170Y22225D01*
X267170Y11690D01*
X260171Y11690D01*
X259677Y11894D01*
X259676Y11894D01*
X259676Y11895D01*
X259674Y11893D01*
X259671Y11892D01*
X259671Y11891D01*
X259670Y11890D01*
X259670Y11742D01*
X256158Y8230D01*
X244489Y8230D01*
X244487Y8228D01*
X244485Y8228D01*
X242261Y6004D01*
X242260Y6002D01*
X242259Y6001D01*
X242260Y5999D01*
X242260Y5997D01*
X242263Y5997D01*
X242264Y5995D01*
X315261Y5995D01*
X315263Y5997D01*
G37*
G36*
X6001Y107832D02*
X6001Y107832D01*
X6004Y107832D01*
X6917Y108745D01*
X7900Y108745D01*
X7905Y108750D01*
X7904Y108750D01*
X7905Y108750D01*
X7905Y122265D01*
X8741Y124284D01*
X8741Y124285D01*
X8741Y124286D01*
X8740Y124287D01*
X8741Y124288D01*
X8730Y124316D01*
X8730Y129684D01*
X10784Y134644D01*
X14581Y138441D01*
X17610Y139695D01*
X17611Y139697D01*
X17612Y139698D01*
X17612Y139699D01*
X17613Y139701D01*
X17611Y139702D01*
X17610Y139705D01*
X14581Y140959D01*
X10784Y144756D01*
X8730Y149716D01*
X8730Y155084D01*
X10784Y160044D01*
X14581Y163841D01*
X19541Y165895D01*
X24909Y165895D01*
X29869Y163841D01*
X33666Y160044D01*
X33966Y159320D01*
X33966Y159319D01*
X33968Y159319D01*
X33972Y159317D01*
X33972Y159319D01*
X33974Y159319D01*
X34320Y159665D01*
X41966Y159665D01*
X41967Y159666D01*
X41968Y159665D01*
X41968Y159667D01*
X41971Y159670D01*
X41970Y159671D01*
X41971Y159672D01*
X41781Y160131D01*
X41781Y162464D01*
X41779Y162465D01*
X41779Y162467D01*
X38455Y165792D01*
X38455Y194000D01*
X38450Y194005D01*
X38450Y194004D01*
X38450Y194005D01*
X6000Y194005D01*
X5995Y194000D01*
X5996Y194000D01*
X5995Y194000D01*
X5995Y107836D01*
X5996Y107834D01*
X5996Y107833D01*
X5998Y107832D01*
X6000Y107831D01*
X6001Y107832D01*
G37*
%LPC*%
G36*
X507605Y123830D02*
X507605Y123830D01*
X507605Y153360D01*
X539104Y153360D01*
X540036Y152974D01*
X540749Y152261D01*
X541135Y151329D01*
X541135Y123830D01*
X507605Y123830D01*
G37*
%LPD*%
%LPC*%
G36*
X507605Y94290D02*
X507605Y94290D01*
X507605Y123820D01*
X541135Y123820D01*
X541135Y96321D01*
X540749Y95389D01*
X540036Y94676D01*
X539104Y94290D01*
X507605Y94290D01*
G37*
%LPD*%
%LPC*%
G36*
X476096Y94290D02*
X476096Y94290D01*
X475164Y94676D01*
X474451Y95389D01*
X474065Y96321D01*
X474065Y123820D01*
X507595Y123820D01*
X507595Y94290D01*
X476096Y94290D01*
G37*
%LPD*%
G36*
X413105Y169925D02*
X413105Y169925D01*
X413104Y169925D01*
X413105Y169925D01*
X413105Y170435D01*
X413100Y170440D01*
X413100Y170439D01*
X413100Y170440D01*
X402980Y170440D01*
X402980Y180975D01*
X402980Y191510D01*
X413100Y191510D01*
X413105Y191515D01*
X413104Y191515D01*
X413105Y191515D01*
X413105Y194000D01*
X413100Y194005D01*
X413100Y194004D01*
X413100Y194005D01*
X354936Y194005D01*
X354934Y194004D01*
X354933Y194004D01*
X354932Y194002D01*
X354931Y194000D01*
X354932Y193999D01*
X354932Y193996D01*
X357470Y191458D01*
X357470Y189999D01*
X357475Y189994D01*
X357475Y189995D01*
X357475Y189994D01*
X360569Y189994D01*
X363884Y188621D01*
X366421Y186084D01*
X367794Y182769D01*
X367794Y179181D01*
X366421Y175866D01*
X363884Y173329D01*
X360569Y171956D01*
X357475Y171956D01*
X357470Y171951D01*
X357471Y171951D01*
X357470Y171951D01*
X357470Y170492D01*
X356907Y169929D01*
X356907Y169927D01*
X356906Y169926D01*
X356907Y169924D01*
X356907Y169922D01*
X356909Y169922D01*
X356911Y169920D01*
X413100Y169920D01*
X413105Y169925D01*
G37*
G36*
X486464Y164398D02*
X486464Y164398D01*
X486466Y164398D01*
X486991Y164923D01*
X486991Y164925D01*
X486992Y164925D01*
X486991Y164925D01*
X486992Y164930D01*
X486991Y164930D01*
X486130Y165792D01*
X486130Y194000D01*
X486125Y194005D01*
X486125Y194004D01*
X486125Y194005D01*
X485140Y194005D01*
X485135Y194000D01*
X485136Y194000D01*
X485135Y194000D01*
X485135Y180980D01*
X476250Y180980D01*
X467365Y180980D01*
X467365Y194000D01*
X467360Y194005D01*
X467360Y194004D01*
X467360Y194005D01*
X456565Y194005D01*
X456560Y194000D01*
X456561Y194000D01*
X456560Y194000D01*
X456560Y180980D01*
X447675Y180980D01*
X438790Y180980D01*
X438790Y194000D01*
X438785Y194005D01*
X438785Y194004D01*
X438785Y194005D01*
X437800Y194005D01*
X437795Y194000D01*
X437796Y194000D01*
X437795Y194000D01*
X437795Y165792D01*
X436408Y164405D01*
X436408Y164403D01*
X436407Y164402D01*
X436408Y164400D01*
X436408Y164398D01*
X436410Y164398D01*
X436412Y164396D01*
X486462Y164396D01*
X486464Y164398D01*
G37*
G36*
X272913Y103247D02*
X272913Y103247D01*
X272915Y103247D01*
X278971Y109303D01*
X281221Y111553D01*
X284160Y112770D01*
X287833Y112770D01*
X287834Y112771D01*
X287835Y112771D01*
X290306Y113794D01*
X293894Y113794D01*
X296365Y112771D01*
X296367Y112771D01*
X296367Y112770D01*
X298311Y112770D01*
X298313Y112772D01*
X298315Y112772D01*
X302621Y117078D01*
X305560Y118295D01*
X312740Y118295D01*
X312742Y118296D01*
X312743Y118296D01*
X312744Y118298D01*
X312745Y118300D01*
X312744Y118301D01*
X312744Y118304D01*
X309981Y121067D01*
X309981Y124411D01*
X309980Y124412D01*
X309981Y124412D01*
X309979Y124413D01*
X309976Y124416D01*
X309976Y124415D01*
X309974Y124415D01*
X309974Y124416D01*
X309769Y124331D01*
X306181Y124331D01*
X302866Y125704D01*
X300904Y127666D01*
X300898Y127666D01*
X300898Y127665D01*
X300897Y127666D01*
X299804Y126572D01*
X296865Y125355D01*
X270967Y125355D01*
X270966Y125355D01*
X270966Y125354D01*
X270965Y125354D01*
X268494Y124331D01*
X264906Y124331D01*
X261696Y125660D01*
X261695Y125660D01*
X261693Y125661D01*
X261692Y125659D01*
X261690Y125658D01*
X261691Y125656D01*
X261690Y125654D01*
X263019Y122444D01*
X263019Y118856D01*
X261646Y115541D01*
X259109Y113004D01*
X256638Y111980D01*
X256637Y111979D01*
X256636Y111979D01*
X256179Y111522D01*
X253240Y110305D01*
X248542Y110305D01*
X248540Y110303D01*
X248538Y110302D01*
X248538Y110301D01*
X248537Y110300D01*
X248539Y110298D01*
X248540Y110295D01*
X251479Y109078D01*
X256950Y103607D01*
X256952Y103607D01*
X256953Y103606D01*
X256955Y103606D01*
X258556Y104269D01*
X262144Y104269D01*
X264615Y103246D01*
X264616Y103246D01*
X264617Y103245D01*
X272911Y103245D01*
X272913Y103247D01*
G37*
G36*
X200938Y163572D02*
X200938Y163572D01*
X200940Y163572D01*
X202241Y164872D01*
X224250Y164872D01*
X224255Y164877D01*
X224254Y164877D01*
X224255Y164877D01*
X224255Y166975D01*
X224250Y166980D01*
X224250Y166979D01*
X224250Y166980D01*
X223267Y166980D01*
X219755Y170492D01*
X219755Y170640D01*
X219754Y170640D01*
X219755Y170641D01*
X219753Y170642D01*
X219750Y170645D01*
X219750Y170644D01*
X219750Y170645D01*
X219749Y170644D01*
X219748Y170644D01*
X219254Y170440D01*
X212255Y170440D01*
X212255Y180975D01*
X212255Y191510D01*
X219254Y191510D01*
X219748Y191306D01*
X219749Y191306D01*
X219749Y191305D01*
X219751Y191307D01*
X219754Y191308D01*
X219754Y191309D01*
X219755Y191310D01*
X219755Y191458D01*
X222293Y193996D01*
X222293Y193998D01*
X222294Y193999D01*
X222293Y194001D01*
X222293Y194003D01*
X222291Y194003D01*
X222289Y194005D01*
X184111Y194005D01*
X184109Y194004D01*
X184108Y194004D01*
X184107Y194002D01*
X184106Y194000D01*
X184107Y193999D01*
X184107Y193996D01*
X186645Y191458D01*
X186645Y191310D01*
X186646Y191310D01*
X186645Y191309D01*
X186647Y191308D01*
X186650Y191305D01*
X186651Y191306D01*
X186652Y191306D01*
X187146Y191510D01*
X194145Y191510D01*
X194145Y180975D01*
X194145Y170440D01*
X187146Y170440D01*
X186652Y170644D01*
X186651Y170644D01*
X186651Y170645D01*
X186650Y170644D01*
X186650Y170645D01*
X186648Y170643D01*
X186646Y170642D01*
X186646Y170641D01*
X186645Y170640D01*
X186646Y170640D01*
X186645Y170640D01*
X186645Y170492D01*
X183596Y167443D01*
X183596Y167441D01*
X183595Y167440D01*
X183596Y167440D01*
X183596Y167436D01*
X187460Y163572D01*
X187463Y163571D01*
X187464Y163570D01*
X200937Y163570D01*
X200938Y163572D01*
G37*
G36*
X88763Y163572D02*
X88763Y163572D01*
X88765Y163572D01*
X92785Y167592D01*
X92786Y167596D01*
X92786Y167598D01*
X92715Y167771D01*
X92715Y180970D01*
X101600Y180970D01*
X110485Y180970D01*
X110485Y172751D01*
X110490Y172746D01*
X110490Y172747D01*
X110490Y172746D01*
X111475Y172746D01*
X111480Y172751D01*
X111480Y194000D01*
X111475Y194005D01*
X111475Y194004D01*
X111475Y194005D01*
X110490Y194005D01*
X110485Y194000D01*
X110486Y194000D01*
X110485Y194000D01*
X110485Y180980D01*
X101600Y180980D01*
X92715Y180980D01*
X92715Y194000D01*
X92710Y194005D01*
X92710Y194004D01*
X92710Y194005D01*
X81915Y194005D01*
X81910Y194000D01*
X81911Y194000D01*
X81910Y194000D01*
X81910Y180980D01*
X73025Y180980D01*
X64140Y180980D01*
X64140Y194000D01*
X64135Y194005D01*
X64135Y194004D01*
X64135Y194005D01*
X63150Y194005D01*
X63145Y194000D01*
X63146Y194000D01*
X63145Y194000D01*
X63145Y165792D01*
X62234Y164881D01*
X62234Y164879D01*
X62233Y164878D01*
X62234Y164876D01*
X62234Y164874D01*
X62236Y164874D01*
X62238Y164872D01*
X77159Y164872D01*
X78460Y163572D01*
X78462Y163571D01*
X78463Y163570D01*
X88761Y163570D01*
X88763Y163572D01*
G37*
%LPC*%
G36*
X346080Y85730D02*
X346080Y85730D01*
X346080Y100260D01*
X359579Y100260D01*
X360511Y99874D01*
X361224Y99161D01*
X361610Y98229D01*
X361610Y85730D01*
X346080Y85730D01*
G37*
%LPD*%
%LPC*%
G36*
X346080Y133355D02*
X346080Y133355D01*
X346080Y147885D01*
X359579Y147885D01*
X360511Y147499D01*
X361224Y146786D01*
X361610Y145854D01*
X361610Y133355D01*
X346080Y133355D01*
G37*
%LPD*%
%LPC*%
G36*
X346080Y71190D02*
X346080Y71190D01*
X346080Y85720D01*
X361610Y85720D01*
X361610Y73221D01*
X361224Y72289D01*
X360511Y71576D01*
X359579Y71190D01*
X346080Y71190D01*
G37*
%LPD*%
%LPC*%
G36*
X346080Y118815D02*
X346080Y118815D01*
X346080Y133345D01*
X361610Y133345D01*
X361610Y120846D01*
X361224Y119914D01*
X360511Y119201D01*
X359579Y118815D01*
X346080Y118815D01*
G37*
%LPD*%
G36*
X246890Y126297D02*
X246890Y126297D01*
X246892Y126297D01*
X248891Y128296D01*
X252206Y129669D01*
X255794Y129669D01*
X259004Y128340D01*
X259005Y128340D01*
X259007Y128339D01*
X259008Y128341D01*
X259010Y128342D01*
X259009Y128344D01*
X259010Y128345D01*
X259010Y128346D01*
X257681Y131556D01*
X257681Y135144D01*
X259054Y138459D01*
X261591Y140996D01*
X264906Y142369D01*
X267201Y142369D01*
X267206Y142374D01*
X267205Y142374D01*
X267206Y142374D01*
X267206Y144669D01*
X267291Y144874D01*
X267290Y144875D01*
X267291Y144875D01*
X267290Y144877D01*
X267289Y144880D01*
X267287Y144880D01*
X267286Y144881D01*
X248478Y144881D01*
X248478Y144880D01*
X248477Y144881D01*
X248476Y144879D01*
X248473Y144876D01*
X248474Y144875D01*
X248474Y144874D01*
X248819Y144040D01*
X248819Y140560D01*
X248520Y139837D01*
X248521Y139834D01*
X248521Y139832D01*
X248819Y139533D01*
X248819Y129067D01*
X246056Y126304D01*
X246056Y126302D01*
X246055Y126301D01*
X246056Y126299D01*
X246056Y126297D01*
X246058Y126297D01*
X246060Y126295D01*
X246888Y126295D01*
X246890Y126297D01*
G37*
%LPC*%
G36*
X473080Y73030D02*
X473080Y73030D01*
X473080Y86355D01*
X478597Y86355D01*
X486405Y78547D01*
X486405Y73030D01*
X473080Y73030D01*
G37*
%LPD*%
%LPC*%
G36*
X473080Y59695D02*
X473080Y59695D01*
X473080Y73020D01*
X486405Y73020D01*
X486405Y67503D01*
X478597Y59695D01*
X473080Y59695D01*
G37*
%LPD*%
%LPC*%
G36*
X459745Y73030D02*
X459745Y73030D01*
X459745Y78547D01*
X467553Y86355D01*
X473070Y86355D01*
X473070Y73030D01*
X459745Y73030D01*
G37*
%LPD*%
%LPC*%
G36*
X467553Y59695D02*
X467553Y59695D01*
X459745Y67503D01*
X459745Y73020D01*
X473070Y73020D01*
X473070Y59695D01*
X467553Y59695D01*
G37*
%LPD*%
%LPC*%
G36*
X388940Y180980D02*
X388940Y180980D01*
X388940Y189479D01*
X389326Y190411D01*
X390039Y191124D01*
X390971Y191510D01*
X402970Y191510D01*
X402970Y180980D01*
X388940Y180980D01*
G37*
%LPD*%
%LPC*%
G36*
X390971Y170440D02*
X390971Y170440D01*
X390039Y170826D01*
X389326Y171539D01*
X388940Y172471D01*
X388940Y180970D01*
X402970Y180970D01*
X402970Y170440D01*
X390971Y170440D01*
G37*
%LPD*%
%LPC*%
G36*
X447680Y165740D02*
X447680Y165740D01*
X447680Y180970D01*
X456560Y180970D01*
X456560Y167771D01*
X456174Y166839D01*
X455461Y166126D01*
X454529Y165740D01*
X447680Y165740D01*
G37*
%LPD*%
%LPC*%
G36*
X73030Y165740D02*
X73030Y165740D01*
X73030Y180970D01*
X81910Y180970D01*
X81910Y167771D01*
X81524Y166839D01*
X80811Y166126D01*
X79879Y165740D01*
X73030Y165740D01*
G37*
%LPD*%
%LPC*%
G36*
X476255Y165740D02*
X476255Y165740D01*
X476255Y180970D01*
X485135Y180970D01*
X485135Y167771D01*
X484749Y166839D01*
X484036Y166126D01*
X483104Y165740D01*
X476255Y165740D01*
G37*
%LPD*%
%LPC*%
G36*
X66171Y165740D02*
X66171Y165740D01*
X65239Y166126D01*
X64526Y166839D01*
X64140Y167771D01*
X64140Y180970D01*
X73020Y180970D01*
X73020Y165740D01*
X66171Y165740D01*
G37*
%LPD*%
%LPC*%
G36*
X469396Y165740D02*
X469396Y165740D01*
X468464Y166126D01*
X467751Y166839D01*
X467365Y167771D01*
X467365Y180970D01*
X476245Y180970D01*
X476245Y165740D01*
X469396Y165740D01*
G37*
%LPD*%
%LPC*%
G36*
X440821Y165740D02*
X440821Y165740D01*
X439889Y166126D01*
X439176Y166839D01*
X438790Y167771D01*
X438790Y180970D01*
X447670Y180970D01*
X447670Y165740D01*
X440821Y165740D01*
G37*
%LPD*%
%LPC*%
G36*
X267180Y22230D02*
X267180Y22230D01*
X267180Y32760D01*
X274179Y32760D01*
X275111Y32374D01*
X275824Y31661D01*
X276210Y30729D01*
X276210Y22230D01*
X267180Y22230D01*
G37*
%LPD*%
%LPC*%
G36*
X194155Y180980D02*
X194155Y180980D01*
X194155Y191510D01*
X201154Y191510D01*
X202086Y191124D01*
X202799Y190411D01*
X203185Y189479D01*
X203185Y180980D01*
X194155Y180980D01*
G37*
%LPD*%
%LPC*%
G36*
X267180Y44455D02*
X267180Y44455D01*
X267180Y54985D01*
X274179Y54985D01*
X275111Y54599D01*
X275824Y53886D01*
X276210Y52954D01*
X276210Y44455D01*
X267180Y44455D01*
G37*
%LPD*%
%LPC*%
G36*
X267180Y33915D02*
X267180Y33915D01*
X267180Y44445D01*
X276210Y44445D01*
X276210Y35946D01*
X275824Y35014D01*
X275111Y34301D01*
X274179Y33915D01*
X267180Y33915D01*
G37*
%LPD*%
%LPC*%
G36*
X194155Y170440D02*
X194155Y170440D01*
X194155Y180970D01*
X203185Y180970D01*
X203185Y172471D01*
X202799Y171539D01*
X202086Y170826D01*
X201154Y170440D01*
X194155Y170440D01*
G37*
%LPD*%
%LPC*%
G36*
X267180Y11690D02*
X267180Y11690D01*
X267180Y22220D01*
X276210Y22220D01*
X276210Y13721D01*
X275824Y12789D01*
X275111Y12076D01*
X274179Y11690D01*
X267180Y11690D01*
G37*
%LPD*%
%LPC*%
G36*
X203215Y180980D02*
X203215Y180980D01*
X203215Y189479D01*
X203601Y190411D01*
X204314Y191124D01*
X205246Y191510D01*
X212245Y191510D01*
X212245Y180980D01*
X203215Y180980D01*
G37*
%LPD*%
%LPC*%
G36*
X205246Y170440D02*
X205246Y170440D01*
X204314Y170826D01*
X203601Y171539D01*
X203215Y172471D01*
X203215Y180970D01*
X212245Y180970D01*
X212245Y170440D01*
X205246Y170440D01*
G37*
%LPD*%
%LPC*%
G36*
X284612Y19055D02*
X284612Y19055D01*
X284612Y19889D01*
X284874Y21547D01*
X285393Y23143D01*
X286155Y24639D01*
X287142Y25997D01*
X288328Y27183D01*
X289686Y28170D01*
X291182Y28932D01*
X292778Y29451D01*
X294436Y29713D01*
X295270Y29713D01*
X295270Y19055D01*
X284612Y19055D01*
G37*
%LPD*%
%LPC*%
G36*
X294436Y8387D02*
X294436Y8387D01*
X292778Y8649D01*
X291182Y9168D01*
X289686Y9930D01*
X288328Y10917D01*
X287142Y12103D01*
X286155Y13461D01*
X285393Y14957D01*
X284874Y16553D01*
X284612Y18211D01*
X284612Y19045D01*
X295270Y19045D01*
X295270Y8387D01*
X294436Y8387D01*
G37*
%LPD*%
%LPC*%
G36*
X295280Y8387D02*
X295280Y8387D01*
X295280Y19045D01*
X305938Y19045D01*
X305938Y18211D01*
X305676Y16553D01*
X305157Y14957D01*
X304395Y13461D01*
X303408Y12103D01*
X302222Y10917D01*
X300864Y9930D01*
X299368Y9168D01*
X297772Y8649D01*
X296114Y8387D01*
X295280Y8387D01*
G37*
%LPD*%
%LPC*%
G36*
X12190Y177805D02*
X12190Y177805D01*
X12190Y178788D01*
X12192Y178798D01*
X12195Y178813D01*
X12198Y178828D01*
X12200Y178837D01*
X12203Y178852D01*
X12205Y178867D01*
X12206Y178867D01*
X12205Y178867D01*
X12210Y178892D01*
X12213Y178907D01*
X12218Y178932D01*
X12221Y178947D01*
X12226Y178972D01*
X12229Y178987D01*
X12232Y179001D01*
X12234Y179011D01*
X12237Y179026D01*
X12240Y179041D01*
X12242Y179051D01*
X12245Y179066D01*
X12248Y179081D01*
X12253Y179106D01*
X12256Y179121D01*
X12261Y179146D01*
X12264Y179160D01*
X12269Y179185D01*
X12272Y179200D01*
X12275Y179215D01*
X12277Y179225D01*
X12280Y179240D01*
X12283Y179255D01*
X12285Y179265D01*
X12288Y179280D01*
X12290Y179295D01*
X12291Y179295D01*
X12290Y179295D01*
X12295Y179319D01*
X12298Y179334D01*
X12303Y179359D01*
X12306Y179374D01*
X12311Y179399D01*
X12314Y179414D01*
X12317Y179429D01*
X12319Y179439D01*
X12322Y179454D01*
X12325Y179468D01*
X12325Y179469D01*
X12327Y179478D01*
X12330Y179493D01*
X12333Y179508D01*
X12335Y179518D01*
X12338Y179533D01*
X12341Y179548D01*
X12346Y179573D01*
X12349Y179588D01*
X12354Y179613D01*
X12357Y179627D01*
X12357Y179628D01*
X12360Y179642D01*
X12362Y179652D01*
X12365Y179667D01*
X12368Y179682D01*
X12370Y179692D01*
X12373Y179707D01*
X12375Y179722D01*
X12376Y179722D01*
X12375Y179722D01*
X12377Y179732D01*
X12380Y179747D01*
X12383Y179762D01*
X12388Y179786D01*
X12388Y179787D01*
X12391Y179801D01*
X12396Y179826D01*
X12399Y179841D01*
X12402Y179856D01*
X12404Y179866D01*
X12407Y179881D01*
X12410Y179896D01*
X12412Y179906D01*
X12415Y179921D01*
X12418Y179936D01*
X12420Y179945D01*
X12420Y179946D01*
X12423Y179960D01*
X12426Y179975D01*
X12431Y180000D01*
X12434Y180015D01*
X12439Y180040D01*
X12442Y180055D01*
X12445Y180070D01*
X12447Y180080D01*
X12450Y180095D01*
X12453Y180109D01*
X12453Y180110D01*
X12455Y180119D01*
X12458Y180134D01*
X12460Y180149D01*
X12461Y180149D01*
X12460Y180149D01*
X12462Y180159D01*
X12465Y180174D01*
X12468Y180189D01*
X12473Y180214D01*
X12476Y180229D01*
X12481Y180254D01*
X12484Y180268D01*
X12484Y180269D01*
X12487Y180283D01*
X12489Y180293D01*
X12492Y180308D01*
X12495Y180323D01*
X12497Y180333D01*
X12500Y180348D01*
X12503Y180363D01*
X12505Y180373D01*
X12508Y180388D01*
X12511Y180403D01*
X12516Y180427D01*
X12516Y180428D01*
X12519Y180442D01*
X12524Y180467D01*
X12527Y180482D01*
X12530Y180497D01*
X12532Y180507D01*
X12535Y180522D01*
X12538Y180537D01*
X12540Y180547D01*
X12543Y180562D01*
X12545Y180577D01*
X12546Y180577D01*
X12545Y180577D01*
X12547Y180586D01*
X12550Y180601D01*
X12553Y180616D01*
X12558Y180641D01*
X12561Y180656D01*
X12566Y180681D01*
X12569Y180696D01*
X12574Y180721D01*
X12575Y180727D01*
X13332Y182553D01*
X14430Y184197D01*
X15828Y185595D01*
X17472Y186693D01*
X19298Y187450D01*
X21237Y187835D01*
X22220Y187835D01*
X22220Y177805D01*
X12190Y177805D01*
G37*
%LPD*%
%LPC*%
G36*
X22230Y177805D02*
X22230Y177805D01*
X22230Y187835D01*
X23213Y187835D01*
X25152Y187450D01*
X26978Y186693D01*
X28622Y185595D01*
X30020Y184197D01*
X31118Y182553D01*
X31875Y180727D01*
X32260Y178788D01*
X32260Y177805D01*
X22230Y177805D01*
G37*
%LPD*%
%LPC*%
G36*
X22230Y167765D02*
X22230Y167765D01*
X22230Y177795D01*
X32260Y177795D01*
X32260Y176812D01*
X32259Y176807D01*
X32259Y176806D01*
X32256Y176792D01*
X32251Y176767D01*
X32248Y176752D01*
X32245Y176737D01*
X32243Y176727D01*
X32240Y176712D01*
X32237Y176697D01*
X32235Y176687D01*
X32233Y176672D01*
X32232Y176672D01*
X32233Y176672D01*
X32230Y176657D01*
X32228Y176648D01*
X32225Y176633D01*
X32222Y176618D01*
X32217Y176593D01*
X32214Y176578D01*
X32209Y176553D01*
X32206Y176538D01*
X32203Y176523D01*
X32201Y176513D01*
X32198Y176498D01*
X32195Y176484D01*
X32193Y176474D01*
X32190Y176459D01*
X32187Y176444D01*
X32185Y176434D01*
X32182Y176419D01*
X32179Y176404D01*
X32174Y176379D01*
X32171Y176364D01*
X32166Y176339D01*
X32163Y176325D01*
X32160Y176310D01*
X32158Y176300D01*
X32155Y176285D01*
X32152Y176270D01*
X32150Y176260D01*
X32148Y176245D01*
X32147Y176245D01*
X32148Y176245D01*
X32145Y176230D01*
X32143Y176220D01*
X32140Y176205D01*
X32137Y176190D01*
X32132Y176166D01*
X32129Y176151D01*
X32124Y176126D01*
X32121Y176111D01*
X32118Y176096D01*
X32116Y176086D01*
X32113Y176071D01*
X32110Y176056D01*
X32108Y176046D01*
X32105Y176031D01*
X32102Y176017D01*
X32102Y176016D01*
X32100Y176007D01*
X32097Y175992D01*
X32094Y175977D01*
X32089Y175952D01*
X32086Y175937D01*
X32081Y175912D01*
X32078Y175897D01*
X32075Y175882D01*
X32073Y175872D01*
X32070Y175858D01*
X32070Y175857D01*
X32067Y175843D01*
X32065Y175833D01*
X32063Y175818D01*
X32062Y175818D01*
X32063Y175818D01*
X32060Y175803D01*
X32058Y175793D01*
X32055Y175778D01*
X32052Y175763D01*
X32047Y175738D01*
X32044Y175723D01*
X32039Y175699D01*
X32039Y175698D01*
X32036Y175684D01*
X32031Y175659D01*
X32028Y175644D01*
X32025Y175629D01*
X32023Y175619D01*
X32020Y175604D01*
X32017Y175589D01*
X32015Y175579D01*
X32012Y175564D01*
X32009Y175549D01*
X32004Y175525D01*
X32001Y175510D01*
X31996Y175485D01*
X31993Y175470D01*
X31988Y175445D01*
X31985Y175430D01*
X31982Y175415D01*
X31980Y175405D01*
X31978Y175390D01*
X31977Y175390D01*
X31978Y175390D01*
X31975Y175376D01*
X31975Y175375D01*
X31973Y175366D01*
X31970Y175351D01*
X31967Y175336D01*
X31962Y175311D01*
X31959Y175296D01*
X31954Y175271D01*
X31951Y175256D01*
X31946Y175231D01*
X31943Y175217D01*
X31943Y175216D01*
X31940Y175202D01*
X31938Y175192D01*
X31935Y175177D01*
X31932Y175162D01*
X31930Y175152D01*
X31927Y175137D01*
X31924Y175122D01*
X31919Y175097D01*
X31916Y175082D01*
X31911Y175058D01*
X31911Y175057D01*
X31908Y175043D01*
X31903Y175018D01*
X31900Y175003D01*
X31897Y174988D01*
X31895Y174978D01*
X31893Y174963D01*
X31892Y174963D01*
X31893Y174963D01*
X31890Y174948D01*
X31888Y174938D01*
X31885Y174923D01*
X31882Y174908D01*
X31877Y174884D01*
X31875Y174873D01*
X31118Y173047D01*
X30020Y171403D01*
X28622Y170005D01*
X26978Y168907D01*
X25152Y168150D01*
X23214Y167765D01*
X22230Y167765D01*
G37*
%LPD*%
%LPC*%
G36*
X21236Y167765D02*
X21236Y167765D01*
X19298Y168150D01*
X17472Y168907D01*
X15828Y170005D01*
X14430Y171403D01*
X13332Y173047D01*
X12575Y174873D01*
X12190Y176811D01*
X12190Y177795D01*
X22220Y177795D01*
X22220Y167765D01*
X21236Y167765D01*
G37*
%LPD*%
%LPC*%
G36*
X153421Y79370D02*
X153421Y79370D01*
X166111Y79370D01*
X166111Y75569D01*
X165725Y74637D01*
X165012Y73924D01*
X164080Y73538D01*
X153421Y73538D01*
X153421Y79370D01*
G37*
%LPD*%
%LPC*%
G36*
X438155Y74990D02*
X438155Y74990D01*
X438155Y83520D01*
X446685Y83520D01*
X446685Y77021D01*
X446299Y76089D01*
X445586Y75376D01*
X444654Y74990D01*
X438155Y74990D01*
G37*
%LPD*%
%LPC*%
G36*
X431646Y74990D02*
X431646Y74990D01*
X430714Y75376D01*
X430001Y76089D01*
X429615Y77021D01*
X429615Y83520D01*
X438145Y83520D01*
X438145Y74990D01*
X431646Y74990D01*
G37*
%LPD*%
G36*
X242651Y150701D02*
X242651Y150701D01*
X242654Y150702D01*
X242654Y150703D01*
X242655Y150704D01*
X242655Y164430D01*
X242654Y164431D01*
X242654Y164432D01*
X241806Y166481D01*
X241806Y167540D01*
X241805Y167542D01*
X241805Y167543D01*
X241803Y167544D01*
X241801Y167545D01*
X241800Y167544D01*
X241799Y167544D01*
X241797Y167544D01*
X241233Y166980D01*
X240250Y166980D01*
X240245Y166975D01*
X240246Y166975D01*
X240245Y166975D01*
X240245Y157635D01*
X239028Y154696D01*
X235386Y151054D01*
X235385Y151052D01*
X235384Y151051D01*
X235385Y151049D01*
X235385Y151047D01*
X235388Y151047D01*
X235389Y151045D01*
X241814Y151045D01*
X242648Y150700D01*
X242649Y150700D01*
X242649Y150699D01*
X242651Y150701D01*
G37*
G36*
X250355Y177299D02*
X250355Y177299D01*
X250355Y180975D01*
X250355Y191510D01*
X257354Y191510D01*
X257848Y191306D01*
X257849Y191306D01*
X257849Y191305D01*
X257851Y191307D01*
X257854Y191308D01*
X257854Y191309D01*
X257855Y191310D01*
X257855Y191458D01*
X260393Y193996D01*
X260393Y193998D01*
X260394Y193999D01*
X260393Y194001D01*
X260393Y194003D01*
X260391Y194003D01*
X260389Y194005D01*
X242211Y194005D01*
X242209Y194004D01*
X242208Y194004D01*
X242207Y194002D01*
X242206Y194000D01*
X242207Y193999D01*
X242207Y193996D01*
X244692Y191512D01*
X244694Y191511D01*
X244695Y191510D01*
X250345Y191510D01*
X250345Y180975D01*
X250345Y177299D01*
X250349Y177294D01*
X250350Y177294D01*
X250355Y177299D01*
G37*
D10*
X415925Y21750D03*
X415925Y41750D03*
D11*
X409575Y133350D03*
X346075Y133350D03*
D12*
X267175Y44450D03*
X247175Y44450D03*
X267175Y22225D03*
X247175Y22225D03*
D11*
X409575Y85725D03*
X346075Y85725D03*
D12*
X250350Y180975D03*
X270350Y180975D03*
X212250Y180975D03*
X232250Y180975D03*
X194150Y180975D03*
X174150Y180975D03*
D13*
X232874Y142300D02*
X240074Y142300D01*
D14*
X236474Y134300D03*
X236474Y126300D03*
X236474Y118300D03*
X236474Y110300D03*
X236474Y102300D03*
X236474Y94300D03*
X236474Y86300D03*
D15*
X251400Y71374D03*
X259400Y71374D03*
X267400Y71374D03*
X275400Y71374D03*
X283400Y71374D03*
X291400Y71374D03*
X299400Y71374D03*
X307400Y71374D03*
D14*
X322326Y86300D03*
X322326Y94300D03*
X322326Y102300D03*
X322326Y110300D03*
X322326Y118300D03*
X322326Y126300D03*
X322326Y134300D03*
X322326Y142300D03*
D15*
X307400Y157226D03*
X299400Y157226D03*
X291400Y157226D03*
X283400Y157226D03*
X275400Y157226D03*
X267400Y157226D03*
X259400Y157226D03*
X251400Y157226D03*
D16*
X507600Y123825D03*
D17*
X434600Y146625D03*
X434600Y101025D03*
D18*
X64516Y155575D03*
X125984Y155575D03*
X64516Y142875D03*
X64516Y130175D03*
X125984Y142875D03*
X125984Y130175D03*
X64516Y117475D03*
X125984Y117475D03*
X64516Y104775D03*
X64516Y92075D03*
X125984Y104775D03*
X125984Y92075D03*
X64516Y79375D03*
X125984Y79375D03*
X153416Y155575D03*
X214884Y155575D03*
X153416Y142875D03*
X153416Y130175D03*
X214884Y142875D03*
X214884Y130175D03*
X153416Y117475D03*
X214884Y117475D03*
X153416Y104775D03*
X153416Y92075D03*
X214884Y104775D03*
X214884Y92075D03*
X153416Y79375D03*
X214884Y79375D03*
D19*
X320675Y44450D03*
X320675Y19050D03*
X346075Y19050D03*
X346075Y44450D03*
X295275Y44450D03*
X295275Y19050D03*
D20*
X22225Y127000D03*
X22225Y152400D03*
X22225Y177800D03*
D21*
X438150Y83525D03*
X438150Y62525D03*
X374650Y42250D03*
X374650Y21250D03*
D22*
X207010Y34925D03*
X110490Y34925D03*
D23*
X295300Y180975D03*
X314300Y180975D03*
X15900Y95250D03*
X34900Y95250D03*
D24*
X438150Y41250D03*
X438150Y22250D03*
X393700Y41250D03*
X393700Y22250D03*
D25*
X402975Y180975D03*
X339975Y180975D03*
D26*
X498475Y180975D03*
X476250Y180975D03*
X425450Y180975D03*
X447675Y180975D03*
X123825Y180975D03*
X101600Y180975D03*
X50800Y180975D03*
X73025Y180975D03*
D27*
X34925Y34925D03*
X514350Y34925D03*
D28*
X85725Y60325D03*
X41275Y142875D03*
X473075Y73025D03*
D29*
X85725Y180975D02*
X73025Y180975D01*
X460375Y180975D02*
X476250Y180975D01*
X460375Y180975D02*
X447675Y180975D01*
X346075Y133350D02*
X346075Y111125D01*
X346075Y85725D01*
X332550Y118300D02*
X322326Y118300D01*
X332550Y118300D02*
X339725Y111125D01*
X346075Y111125D01*
X267175Y44450D02*
X267175Y22225D01*
X88900Y79375D02*
X64516Y79375D01*
X88900Y79375D02*
X98425Y69850D01*
X143891Y69850D01*
X153416Y79375D01*
X267175Y22225D02*
X279400Y22225D01*
X282575Y19050D01*
X295275Y19050D01*
X168275Y79375D02*
X153416Y79375D01*
D30*
X193675Y117475D03*
X269875Y111125D03*
D29*
X288925Y118300D02*
X322326Y118300D01*
X212250Y180975D02*
X194150Y180975D01*
D30*
X460375Y180975D03*
X381000Y180975D03*
D29*
X402975Y180975D01*
D30*
X371475Y133350D03*
D29*
X346075Y133350D01*
D30*
X85725Y180975D03*
D29*
X469900Y123825D02*
X507600Y123825D01*
D30*
X469900Y123825D03*
X212725Y165100D03*
X241300Y165100D03*
D29*
X241300Y168275D01*
X212725Y165100D02*
X212250Y165575D01*
X212250Y180975D01*
X101600Y180975D02*
X85725Y180975D01*
X415925Y21750D02*
X415925Y12700D01*
X422275Y6350D01*
X447675Y6350D01*
X454025Y12700D01*
X454025Y67650D01*
X438150Y83525D01*
X307975Y6350D02*
X295275Y19050D01*
X409575Y6350D02*
X415925Y12700D01*
X409575Y6350D02*
X307975Y6350D01*
X241300Y152400D02*
X241300Y165100D01*
X241300Y152400D02*
X250825Y142875D01*
X250350Y177325D02*
X250350Y180975D01*
X250350Y177325D02*
X241300Y168275D01*
X255588Y134938D02*
X269875Y120650D01*
X255588Y134938D02*
X250825Y139700D01*
X259525Y110300D02*
X236474Y110300D01*
X259525Y110300D02*
X260350Y111125D01*
X269875Y111125D01*
X281750Y111125D01*
X288925Y118300D01*
X269875Y120650D02*
X269875Y111125D01*
X250825Y139700D02*
X250825Y142875D01*
X246950Y126300D02*
X236474Y126300D01*
X246950Y126300D02*
X255588Y134938D01*
X180975Y92075D02*
X168275Y79375D01*
X180975Y104775D02*
X193675Y117475D01*
X180975Y104775D02*
X180975Y92075D01*
X438150Y83525D02*
X450850Y96225D01*
X450850Y104775D01*
X469900Y123825D01*
X462575Y83525D02*
X473075Y73025D01*
X462575Y83525D02*
X438150Y83525D01*
X415925Y41750D02*
X435425Y22250D01*
X438150Y22250D01*
X415425Y41250D02*
X393700Y41250D01*
X424875Y101025D02*
X434600Y101025D01*
X424875Y101025D02*
X409575Y85725D01*
X409575Y66675D01*
X415925Y60325D01*
X415925Y41750D01*
X415425Y41250D01*
X228600Y155575D02*
X214884Y155575D01*
X184150Y155575D01*
X174150Y165575D02*
X174150Y180975D01*
X174150Y165575D02*
X184150Y155575D01*
X308925Y94300D02*
X322326Y94300D01*
X308925Y94300D02*
X304800Y98425D01*
X307150Y110300D02*
X322326Y110300D01*
X307150Y110300D02*
X304800Y107950D01*
X304800Y104775D01*
X304800Y98425D01*
X292100Y104775D02*
X285750Y104775D01*
X292100Y104775D02*
X304800Y104775D01*
X393700Y57150D02*
X393700Y41250D01*
D30*
X393700Y57150D03*
D29*
X47625Y95250D02*
X34900Y95250D01*
X111125Y155575D02*
X125984Y155575D01*
X111125Y155575D02*
X107950Y152400D01*
X107950Y95250D02*
X98425Y85725D01*
X107950Y95250D02*
X107950Y152400D01*
D30*
X47625Y95250D03*
X98425Y85725D03*
D29*
X314300Y180975D02*
X314325Y180950D01*
X232250Y180975D02*
X232250Y159225D01*
X228600Y155575D01*
X314325Y168275D02*
X317500Y165100D01*
X314325Y168275D02*
X314325Y180950D01*
D30*
X317500Y165100D03*
X292100Y104775D03*
X152400Y177800D03*
X107950Y152400D03*
D29*
X236474Y118300D02*
X251650Y118300D01*
X254000Y120650D01*
D30*
X254000Y120650D03*
X260350Y95250D03*
D29*
X246950Y102300D02*
X236474Y102300D01*
X246950Y102300D02*
X254000Y95250D01*
X260350Y95250D02*
X276225Y95250D01*
X285750Y104775D01*
X260350Y95250D02*
X254000Y95250D01*
D30*
X190500Y92075D03*
X196850Y107950D03*
D29*
X190500Y101600D02*
X190500Y92075D01*
X190500Y101600D02*
X196850Y107950D01*
X174150Y180975D02*
X155575Y180975D01*
X152400Y177800D01*
X236474Y94300D02*
X245425Y94300D01*
X247650Y92075D01*
X247650Y82550D01*
X158750Y34925D02*
X110490Y34925D01*
X247175Y44450D02*
X247175Y54450D01*
X241300Y60325D01*
X241300Y69850D01*
X241300Y76200D01*
X247650Y82550D01*
X177800Y53975D02*
X158750Y34925D01*
D30*
X215900Y69850D03*
X241300Y69850D03*
D29*
X215900Y69850D02*
X200025Y53975D01*
X177800Y53975D01*
X207010Y48260D02*
X207010Y34925D01*
X228600Y78426D02*
X236474Y86300D01*
X228600Y78426D02*
X228600Y69850D01*
X222250Y63500D01*
X207010Y48260D01*
X237650Y12700D02*
X247175Y22225D01*
X212725Y12700D02*
X206375Y19050D01*
X206375Y34290D01*
X207010Y34925D01*
X212725Y12700D02*
X237650Y12700D01*
D31*
X434600Y139325D02*
X434600Y146625D01*
X434600Y139325D02*
X428625Y133350D01*
X409575Y133350D01*
D30*
X428625Y133350D03*
D29*
X282575Y180975D02*
X270350Y180975D01*
X282575Y180975D02*
X295300Y180975D01*
X339975Y180975D02*
X358775Y180975D01*
D30*
X358775Y180975D03*
X282575Y180975D03*
D29*
X282575Y170485D01*
X275400Y163310D02*
X275400Y157226D01*
X275400Y163310D02*
X282575Y170485D01*
X259400Y167325D02*
X259400Y157226D01*
X259400Y167325D02*
X260350Y168275D01*
D30*
X260350Y168275D03*
X92075Y142875D03*
D29*
X64516Y142875D01*
X41275Y142875D01*
X267400Y157226D02*
X267400Y165800D01*
X269875Y168275D01*
D30*
X269875Y168275D03*
X92075Y130175D03*
D29*
X101600Y101600D02*
X92075Y92075D01*
X101600Y101600D02*
X101600Y120650D01*
X92075Y130175D01*
X92075Y92075D02*
X64516Y92075D01*
X53975Y92075D01*
X47625Y85725D01*
X60325Y60325D02*
X85725Y60325D01*
X60325Y60325D02*
X47625Y73025D01*
X47625Y85725D01*
X50800Y130175D02*
X64516Y130175D01*
X50800Y130175D02*
X47625Y127000D01*
X47625Y117475D01*
X47625Y107950D01*
X50800Y104775D01*
X64516Y104775D01*
X31750Y127000D02*
X22225Y127000D01*
X31750Y127000D02*
X41275Y117475D01*
X47625Y117475D01*
X15900Y120675D02*
X15900Y95250D01*
X15900Y120675D02*
X22225Y127000D01*
X64516Y155575D02*
X92075Y155575D01*
X144240Y164751D02*
X153416Y155575D01*
X101251Y164751D02*
X92075Y155575D01*
X101251Y164751D02*
X144240Y164751D01*
X251400Y167700D02*
X251400Y157226D01*
X251400Y167700D02*
X250825Y168275D01*
D30*
X250825Y168275D03*
X171450Y155575D03*
D29*
X153416Y155575D01*
X153416Y142875D02*
X171450Y142875D01*
X184150Y130175D01*
D30*
X184150Y130175D03*
D29*
X92075Y117475D02*
X64516Y117475D01*
D30*
X92075Y117475D03*
D29*
X438150Y62525D02*
X438150Y41250D01*
X383200Y21250D02*
X374650Y21250D01*
X384200Y22250D02*
X393700Y22250D01*
X384200Y22250D02*
X383200Y21250D01*
X333375Y31750D02*
X320675Y44450D01*
X364150Y31750D02*
X374650Y42250D01*
X364150Y31750D02*
X333375Y31750D01*
X322326Y76011D02*
X322326Y86300D01*
X365125Y60325D02*
X374650Y50800D01*
X374650Y42250D01*
X338012Y60325D02*
X322326Y76011D01*
X338012Y60325D02*
X365125Y60325D01*
X299400Y59375D02*
X299400Y71374D01*
X299400Y59375D02*
X307975Y50800D01*
X307975Y31750D01*
X320675Y19050D01*
X319151Y71374D02*
X307400Y71374D01*
X319151Y71374D02*
X346075Y44450D01*
X498475Y165100D02*
X498475Y180975D01*
X498475Y165100D02*
X489776Y156401D01*
X337376Y156401D01*
X322326Y134300D02*
X308925Y134300D01*
X307975Y133350D01*
D30*
X307975Y133350D03*
X333375Y152400D03*
D29*
X337376Y156401D01*
X425450Y168275D02*
X425450Y180975D01*
X425450Y168275D02*
X419100Y161925D01*
X322326Y154051D02*
X322326Y142300D01*
X322326Y154051D02*
X330200Y161925D01*
X419100Y161925D01*
X307400Y157226D02*
X307400Y145475D01*
X295275Y133350D02*
X266700Y133350D01*
X295275Y133350D02*
X307400Y145475D01*
D30*
X136525Y177800D03*
X266700Y133350D03*
D29*
X133350Y180975D02*
X123825Y180975D01*
X133350Y180975D02*
X136525Y177800D01*
X299400Y157226D02*
X299400Y147000D01*
X295275Y142875D01*
X276225Y142875D01*
X50800Y161925D02*
X50800Y180975D01*
D30*
X50800Y161925D03*
X276225Y142875D03*
M02*
