M48
;GenerationSoftware,Autodesk,EAGLE,9.5.0*%
;CreationDate,2019-09-16T13:54:28Z*%
FMAT,2
ICI,OFF
METRIC,TZ,000.000
T6C0.300
T5C1.000
T4C1.000
T3C1.000
T2C3.000
%
G90
M71
T2
X51435Y3492
X3492Y3492
T3
X47307Y7302
X4128Y14287
X8573Y6032
T4
X2223Y17780
X2223Y15240
X2223Y12700
T5
X32067Y1905
X32067Y4445
X34608Y1905
X34608Y4445
X29527Y4445
X29527Y1905
T6
X9208Y14287
X27622Y14287
X5080Y16192
X26670Y13335
X13652Y17780
X33338Y15240
X30797Y13335
X9208Y11747
X18415Y13017
X17145Y15557
X25082Y16828
X9208Y13017
X26987Y16828
X29210Y10478
X26987Y11112
X46037Y18098
X38100Y18098
X37148Y13335
X8573Y18098
X46990Y12382
X21273Y16510
X24130Y16510
X39370Y5715
X4763Y9525
X9843Y8573
X31750Y16510
X19368Y11747
X15240Y17780
X10795Y15240
X25400Y12065
X26035Y9525
X19050Y9208
X19685Y10795
X21590Y6985
X24130Y6985
X42863Y13335
X35878Y18098
X28257Y18098
X26035Y16828
M30
